<svg version="1.1" id="Layer_1" xmlns="http://www.w3.org/2000/svg" xmlns:xlink="http://www.w3.org/1999/xlink" x="0px" y="0px"
	 width="100%" viewBox="0 0 400 400" enable-background="new 0 0 400 400" xml:space="preserve">
<path fill="#FEFEFE" opacity="1.000000" stroke="none" 
	d="
M173.000000,1.000000 
	C191.354233,1.000000 209.708450,1.000000 228.229492,1.363740 
	C229.066208,2.145213 229.685898,2.779572 230.413544,2.948251 
	C241.686234,5.561447 253.225021,7.327481 264.203613,10.845557 
	C286.745117,18.068928 307.811737,28.637659 325.629089,44.393822 
	C337.886353,55.233135 349.777344,66.726318 360.310333,79.211090 
	C371.732697,92.750084 379.780212,108.681427 386.593994,125.109940 
	C392.723724,139.889069 397.163544,155.106628 399.079041,171.031799 
	C399.165955,171.754425 400.334961,172.346909 401.000000,173.000000 
	C401.000000,191.354233 401.000000,209.708450 400.636292,228.229477 
	C399.854797,229.066193 399.220428,229.685913 399.051758,230.413589 
	C396.438538,241.686264 394.672485,253.225067 391.154419,264.203644 
	C383.931061,286.745148 373.362366,307.811768 357.606171,325.629089 
	C346.766815,337.886353 335.273621,349.777313 322.788879,360.310303 
	C309.249908,371.732727 293.318542,379.780212 276.890015,386.593994 
	C262.110901,392.723694 246.893356,397.163513 230.968216,399.079041 
	C230.245575,399.165955 229.653107,400.334991 229.000000,401.000000 
	C210.645767,401.000000 192.291550,401.000000 173.770538,400.636292 
	C172.933792,399.854797 172.314056,399.220428 171.586365,399.051727 
	C160.313690,396.438538 148.774918,394.672516 137.796326,391.154449 
	C115.254875,383.931091 94.188286,373.362366 76.370979,357.606171 
	C64.113708,346.766846 52.222694,335.273682 41.689701,322.788910 
	C30.267288,309.249939 22.219801,293.318573 15.406012,276.890045 
	C9.276317,262.110962 4.836451,246.893387 2.920950,230.968231 
	C2.834030,230.245590 1.665017,229.653107 1.000003,229.000000 
	C1.000000,210.645767 1.000000,192.291550 1.363743,173.770508 
	C2.145218,172.933807 2.779573,172.314102 2.948251,171.586456 
	C5.561447,160.313782 7.327505,148.774994 10.845559,137.796387 
	C18.068901,115.254906 28.637644,94.188309 44.393826,76.370979 
	C55.233150,64.113708 66.726326,52.222725 79.211075,41.689728 
	C92.750046,30.267317 108.681412,22.219810 125.109940,15.406017 
	C139.889053,9.276321 155.106613,4.836454 171.031769,2.920943 
	C171.754410,2.834022 172.346893,1.665011 173.000000,1.000000 
M269.481781,73.029663 
	C264.817169,73.028397 260.152527,73.022240 255.487915,73.026718 
	C237.661423,73.043861 219.832870,72.908295 202.009277,73.145218 
	C192.108704,73.276825 186.659241,79.147011 186.659546,88.812492 
	C186.660690,124.466072 186.661209,160.119659 186.661972,195.773239 
	C186.662003,197.500549 186.661972,199.227875 186.661972,201.372879 
	C184.708511,200.959351 183.588196,200.788528 182.505905,200.482941 
	C170.001602,196.952209 159.712814,189.826813 150.421814,180.961517 
	C147.547546,178.218933 146.528839,175.299911 146.553131,171.314133 
	C146.725693,142.992249 146.656952,114.668808 146.635468,86.345886 
	C146.630142,79.336166 143.666580,74.361687 137.960907,73.454430 
	C133.343658,72.720238 128.516617,73.305519 123.595535,73.305519 
	C123.595535,75.452560 123.595482,77.111938 123.595551,78.771317 
	C123.596794,110.093147 123.723732,141.415787 123.521919,172.736313 
	C123.462219,182.001740 126.015312,190.240356 131.619522,197.363998 
	C152.221146,223.551285 181.380295,226.476822 212.186340,226.976166 
	C212.186340,182.672607 212.186340,138.977814 212.186340,95.098633 
	C214.440262,95.098633 216.095840,95.098923 217.751434,95.098595 
	C235.911438,95.095016 254.071518,95.061516 272.231384,95.108955 
	C276.690887,95.120605 279.882263,93.427559 280.203247,88.761192 
	C280.552795,83.680458 280.282623,78.557091 280.282623,73.031425 
	C276.744202,73.031425 273.608856,73.031425 269.481781,73.029663 
M134.993652,287.280212 
	C134.994858,276.622589 134.909836,265.963837 135.052261,255.308105 
	C135.092560,252.294205 134.521545,250.638885 131.043732,250.672256 
	C127.573341,250.705566 126.981461,252.411713 127.036903,255.397934 
	C127.183456,263.291382 127.086548,271.189331 127.086548,279.085480 
	C125.724144,278.342377 125.193626,277.411255 124.690201,276.465698 
	C120.706001,268.982147 116.724602,261.497131 112.747253,254.009949 
	C110.233032,249.277054 105.741966,250.770233 102.045944,251.100815 
	C98.353943,251.431015 99.184402,254.981293 99.174438,257.532898 
	C99.132812,268.190277 99.250313,278.849030 99.118507,289.504913 
	C99.080879,292.547302 99.750000,294.109253 103.185081,294.166260 
	C106.812775,294.226440 107.666145,292.680542 107.592278,289.352509 
	C107.405968,280.958008 107.530563,272.556549 107.530563,262.750275 
	C108.944382,265.214508 109.757645,266.550110 110.493011,267.927338 
	C114.486465,275.406464 118.536568,282.856842 122.412834,290.396484 
	C124.700615,294.846375 128.730972,294.495850 132.342575,293.659576 
	C133.584061,293.372101 134.138931,290.119415 134.993652,287.280212 
M299.553314,250.804092 
	C296.602173,250.597290 296.000916,252.202606 296.040466,254.827271 
	C296.163849,263.009888 296.085724,271.195587 296.085724,279.380066 
	C294.763123,278.676086 294.287445,277.862854 293.848846,277.030060 
	C289.896851,269.526093 285.907135,262.041534 282.019714,254.504242 
	C279.476227,249.572708 274.865814,250.613632 271.035461,251.302643 
	C269.745880,251.534622 268.381439,255.425354 268.315277,257.680969 
	C268.022217,267.669556 268.178558,277.671600 268.192932,287.668793 
	C268.202942,294.640045 268.415833,294.792328 276.325928,293.405365 
	C276.325928,288.554657 276.325928,283.595581 276.325928,278.636505 
	C276.325928,273.559296 276.325928,268.482086 276.325928,262.160309 
	C277.635925,264.552795 278.416870,265.942841 279.164520,267.350555 
	C283.221130,274.988617 287.352661,282.588470 291.288757,290.288239 
	C293.557434,294.726227 297.515808,294.414459 301.239960,293.830994 
	C305.032867,293.236786 303.899780,289.770844 303.918518,287.293121 
	C303.999176,276.630096 303.907410,265.965729 303.982666,255.302597 
	C304.000916,252.717697 303.911835,250.527512 299.553314,250.804092 
M335.955261,292.750214 
	C347.927826,287.847260 352.975525,274.511658 347.544189,262.059448 
	C345.119324,256.499969 341.000824,252.618179 334.973541,251.850861 
	C328.908173,251.078705 322.723297,251.005310 316.601105,251.130524 
	C315.439301,251.154282 313.369293,253.515854 313.339569,254.835220 
	C313.077728,266.471527 313.216431,278.116302 313.157135,289.758118 
	C313.140472,293.029785 314.711548,294.209229 317.806580,294.001953 
	C323.589966,293.614655 329.378693,293.307129 335.955261,292.750214 
M63.538605,258.661194 
	C63.530350,249.957657 62.893177,249.421646 54.687363,251.693893 
	C54.687363,260.375092 54.663258,269.181549 54.693501,277.987793 
	C54.730808,288.850708 60.704956,294.610474 71.945740,294.681641 
	C83.386711,294.754059 89.864174,288.906097 90.066071,278.094910 
	C90.209122,270.434540 89.978180,262.766296 90.174179,255.108231 
	C90.256958,251.874222 89.186249,250.683060 85.924164,250.662674 
	C82.595482,250.641907 81.090591,251.553726 81.203781,255.193497 
	C81.431496,262.516296 81.317467,269.851440 81.262421,277.180847 
	C81.213570,283.686584 78.275848,287.263306 72.946724,287.494263 
	C67.332405,287.737579 63.871685,284.260712 63.617737,277.615540 
	C63.388889,271.627075 63.549927,265.623749 63.538605,258.661194 
M216.634613,251.479309 
	C211.332230,251.302856 206.024887,251.214600 200.729355,250.916428 
	C197.626236,250.741699 196.687363,252.080963 196.729218,255.032242 
	C196.851852,263.676697 196.770416,272.324066 196.769348,280.970276 
	C196.768814,285.223480 196.769241,289.476685 196.769241,293.656952 
	C199.888229,293.656952 202.287888,293.656952 205.307800,293.656952 
	C205.307800,287.752655 205.307800,282.221405 205.307800,276.762390 
	C211.122543,276.323303 212.088028,276.760986 214.226776,281.005554 
	C215.418655,283.370941 216.431503,285.831543 217.433533,288.286591 
	C220.084381,294.781281 220.935547,295.190735 229.058273,292.935852 
	C225.943390,286.331207 222.896820,279.871368 219.767502,273.236084 
	C225.003143,271.039795 226.881500,266.264709 225.969147,260.232361 
	C225.238220,255.399643 222.186172,252.648010 216.634613,251.479309 
M254.323120,257.719025 
	C256.110901,257.719025 257.898682,257.719025 259.895538,257.719025 
	C259.895538,255.236176 259.895538,253.330597 259.895538,250.930939 
	C252.510284,250.930939 245.396255,250.785065 238.300568,251.080338 
	C237.171509,251.127304 235.203049,253.139786 235.182007,254.272491 
	C234.956726,266.411163 234.959167,278.557281 235.191284,290.695770 
	C235.212631,291.812622 237.210831,293.793060 238.353989,293.839996 
	C245.470108,294.132141 252.604172,293.987244 260.085480,293.987244 
	C260.085480,291.606506 260.085480,289.532562 260.085480,287.010223 
	C254.497665,287.010223 249.250885,287.010223 243.841614,287.010223 
	C243.841614,282.825531 243.841614,279.090607 243.841614,275.455627 
	C244.374512,275.213684 244.664322,274.971710 244.959061,274.965546 
	C247.618759,274.910004 250.279312,274.891632 252.939651,274.870270 
	C258.430664,274.826141 258.735931,274.384186 256.964203,268.330627 
	C254.981995,268.330627 252.846283,268.330658 250.710587,268.330658 
	C248.451172,268.330658 246.191742,268.330627 244.019913,268.330627 
	C244.019913,264.404541 244.019913,261.199402 244.019913,257.717163 
	C247.416656,257.717163 250.393219,257.717163 254.323120,257.719025 
M159.258286,251.227386 
	C157.222748,256.783386 157.872009,257.854218 163.322815,257.893036 
	C165.580353,257.909088 167.838104,257.895691 170.398239,257.895691 
	C170.398239,268.078888 170.395172,277.555206 170.399185,287.031555 
	C170.402481,294.816132 170.706299,295.046600 179.270767,293.247986 
	C179.270767,281.664917 179.270767,269.939240 179.270767,257.818878 
	C183.482773,257.818878 187.093338,257.818878 190.899933,257.818878 
	C190.899933,255.338104 190.899933,253.276978 190.899933,250.958755 
	C180.401520,250.958755 170.255234,250.958755 159.258286,251.227386 
M222.779663,120.180077 
	C233.874756,120.180077 244.969833,120.180077 256.122925,120.180077 
	C256.122925,115.360008 256.122925,111.130188 256.122925,106.984467 
	C243.733292,106.984467 231.694672,106.984467 219.416382,106.984467 
	C219.416382,110.714218 219.231567,114.052940 219.527710,117.348442 
	C219.617920,118.352211 221.033005,119.236916 222.779663,120.180077 
M165.954544,73.967369 
	C158.641251,79.079193 157.537003,86.453072 158.065186,94.780960 
	C164.681580,94.780960 170.911484,94.780960 177.337326,94.780960 
	C176.751556,86.100662 176.962891,77.914497 188.013733,73.579376 
	C179.704742,73.579376 173.187866,73.579376 165.954544,73.967369 
M153.166199,268.501831 
	C153.166199,262.745209 153.166199,256.988617 153.166199,251.382462 
	C144.600235,249.889481 144.364655,250.070114 144.360352,257.615021 
	C144.354752,267.436310 144.367691,277.257629 144.358200,287.078918 
	C144.350754,294.775238 144.848404,295.158325 153.167267,293.233093 
	C153.167267,285.406067 153.167267,277.453491 153.166199,268.501831 
M273.264893,328.581696 
	C275.120483,329.192383 276.976044,329.803040 279.661102,330.686707 
	C279.661102,323.319183 279.746521,317.026184 279.563629,310.740936 
	C279.537903,309.858032 278.198792,309.013367 277.467651,308.151001 
	C276.909210,308.988861 275.911713,309.804871 275.868683,310.668396 
	C275.687866,314.300018 275.792267,317.945831 275.792267,321.586426 
	C272.881317,318.156616 271.355804,314.422089 269.075104,311.226501 
	C267.976593,309.687347 265.454803,309.164032 263.577484,308.180695 
	C262.957550,309.684479 261.860992,311.170135 261.802887,312.695343 
	C261.588562,318.324371 261.717743,323.966461 261.717743,329.482178 
	C264.957550,330.754028 266.012451,329.693359 265.883881,326.708221 
	C265.740021,323.366943 265.850861,320.014709 265.850861,316.667236 
	C266.194611,316.632965 266.538361,316.598694 266.882111,316.564423 
	C268.888031,320.339386 270.893921,324.114380 273.264893,328.581696 
M185.462708,313.710144 
	C185.462708,316.028015 185.462708,318.345886 185.462708,320.663788 
	C182.364395,317.090088 180.613586,313.330872 178.276215,309.980896 
	C177.479721,308.839325 175.212708,308.358093 173.607513,308.336761 
	C173.013458,308.328888 171.899994,310.492615 171.863388,311.691620 
	C171.681717,317.642365 171.780518,323.601685 171.780518,329.770111 
	C177.287857,330.652679 175.501266,326.738708 175.700790,324.547211 
	C175.942093,321.896790 175.757996,319.207642 175.757996,316.259033 
	C181.380829,320.292999 179.580734,330.464203 189.774521,330.012299 
	C189.774521,324.009277 189.929214,318.390717 189.675873,312.790558 
	C189.604218,311.206696 188.340057,309.676788 187.622803,308.122131 
	C186.902267,309.693054 186.181717,311.263977 185.462708,313.710144 
M100.079559,319.083344 
	C100.079559,318.194275 100.079559,317.305206 100.079559,316.063721 
	C105.860199,319.862671 103.720711,330.517487 113.946022,329.918427 
	C113.946022,323.332886 114.027908,317.215302 113.863739,311.104340 
	C113.837036,310.110687 112.721054,309.146271 112.108559,308.168335 
	C111.420609,309.224213 110.225456,310.240601 110.139496,311.343384 
	C109.877998,314.698273 110.044716,318.086548 110.044716,321.461823 
	C107.229927,318.026550 105.611511,314.241364 103.304214,310.937256 
	C102.304070,309.505066 99.884529,309.064026 98.109688,308.172821 
	C97.417702,309.609894 96.207474,311.019287 96.128937,312.489136 
	C95.872322,317.291687 96.116119,322.118561 95.994011,326.931671 
	C95.914055,330.082886 97.255508,330.548462 100.081894,329.515198 
	C100.081894,326.224945 100.081894,323.089233 100.079559,319.083344 
M242.373703,329.737213 
	C244.518341,329.836731 246.663559,330.031097 248.807480,330.017578 
	C254.691208,329.980469 257.679626,326.755096 258.012360,320.208282 
	C258.402771,312.526520 255.660141,308.443939 249.626114,307.902039 
	C245.028519,307.489136 240.998688,308.527283 238.721985,313.032440 
	C236.100204,318.220459 237.409683,325.326874 242.373703,329.737213 
M152.213928,318.536987 
	C152.213928,322.171814 152.213928,325.806641 152.213928,329.674622 
	C153.908966,329.674622 155.247559,329.674622 157.100510,329.674622 
	C157.100510,326.761139 157.100510,324.199188 157.100510,321.604919 
	C163.634872,320.955231 160.467758,332.346191 168.652466,329.457672 
	C167.189682,326.255096 165.780701,323.170319 164.371719,320.085571 
	C164.799698,320.146027 165.227692,320.206482 165.655670,320.266937 
	C166.060837,317.412994 167.515091,314.110199 166.545700,311.844299 
	C165.742004,309.965759 162.170013,308.542175 159.670898,308.255402 
	C152.224472,307.401001 152.195023,307.658447 152.212769,315.571960 
	C152.214264,316.237549 152.213699,316.903137 152.213928,318.536987 
M291.665924,308.132507 
	C290.844849,308.565155 289.519440,308.811737 289.280579,309.459167 
	C286.844482,316.062653 284.585144,322.731384 281.905457,330.450317 
	C284.291046,329.816864 286.595459,329.686432 286.719147,329.097809 
	C287.984314,323.076263 292.424042,325.721680 295.756714,325.312622 
	C297.186371,327.903625 297.623047,331.735138 302.289246,329.370026 
	C300.176056,323.017059 298.150726,316.572510 295.804718,310.246857 
	C295.439545,309.262207 293.610748,308.820343 291.665924,308.132507 
M197.037552,328.529602 
	C197.453125,325.565094 199.402817,324.579712 201.989151,325.277100 
	C203.753937,325.752930 205.337784,326.929840 206.973618,327.844971 
	C208.471252,328.682709 209.930069,329.589783 211.405991,330.466339 
	C210.148880,323.025085 208.151276,316.706970 205.779099,310.532837 
	C205.351562,309.420044 203.354797,308.239838 202.133667,308.291779 
	C200.925583,308.343262 199.159195,309.679688 198.714859,310.858521 
	C196.395279,317.012329 194.418762,323.295471 192.075424,330.270294 
	C194.070053,329.855499 195.430756,329.572540 197.037552,328.529602 
M143.473785,326.883087 
	C137.822845,327.105530 140.463821,323.494995 140.413116,321.790955 
	C143.064102,320.701141 145.154770,319.841705 147.245422,318.982239 
	C145.170395,318.301880 143.092239,317.630768 141.023972,316.930481 
	C140.737335,316.833435 140.499496,316.592316 140.242111,316.419952 
	C140.242111,314.976990 140.242111,313.551575 140.242111,311.694855 
	C142.282486,311.694855 144.103622,311.879547 145.857391,311.615936 
	C146.717804,311.486603 147.453186,310.525421 148.245148,309.940704 
	C147.473572,309.330170 146.731735,308.243042 145.925232,308.192749 
	C142.682556,307.990540 139.419876,308.109039 136.095978,308.109039 
	C136.095978,315.803619 136.095978,322.698425 136.095978,330.001831 
	C139.036011,330.001831 141.677826,330.169281 144.283218,329.933746 
	C145.658890,329.809387 146.971100,328.982849 148.311966,328.473389 
	C146.984482,327.943298 145.656982,327.413208 143.473785,326.883087 
M221.370987,135.267914 
	C220.997131,135.508224 220.286987,135.944122 220.296936,135.961212 
	C222.599457,139.920273 224.643661,144.104111 227.521835,147.601273 
	C228.237808,148.471237 232.889221,147.844696 233.591675,146.648865 
	C235.513382,143.377487 236.294739,139.436234 237.700562,135.244736 
	C232.089569,135.244736 227.154175,135.244736 221.370987,135.267914 
M220.830353,319.527466 
	C220.830353,317.084900 220.830353,314.642334 220.830353,312.160400 
	C222.059158,312.053345 222.794693,312.174133 223.336029,311.904694 
	C224.575897,311.287659 225.720932,310.480072 226.904465,309.749847 
	C225.719437,309.185822 224.574219,308.274078 223.340805,308.132935 
	C221.046188,307.870361 218.677338,307.855316 216.382294,308.115631 
	C214.288620,308.353058 212.251755,309.091492 210.189865,309.609100 
	C211.957123,310.768066 213.724380,311.927063 216.311447,313.623718 
	C216.311447,318.295349 216.311447,324.036957 216.311447,329.591705 
	C219.840271,330.752350 221.141327,329.712769 220.861725,326.465637 
	C220.691406,324.487732 220.830002,322.483215 220.830353,319.527466 
M127.010902,322.440369 
	C127.010902,319.026398 127.010902,315.612457 127.010902,312.203430 
	C128.333649,312.071045 129.050430,312.153625 129.628983,311.909119 
	C130.813049,311.408630 131.922867,310.732422 133.063278,310.128571 
	C131.828293,309.438843 130.655579,308.357239 129.344116,308.148865 
	C127.245026,307.815460 125.016167,307.812225 122.912292,308.131531 
	C120.779732,308.455200 118.732262,309.339569 116.647514,309.978363 
	C118.395477,310.978638 120.143448,311.978882 122.374443,313.255554 
	C122.374443,317.281281 122.506927,321.902191 122.332870,326.511536 
	C122.191628,330.251434 123.857010,330.587372 127.010971,329.482269 
	C127.010971,327.343750 127.010971,325.373993 127.010902,322.440369 
M304.930267,317.554260 
	C304.930267,321.626404 304.930267,325.698547 304.930267,329.976715 
	C308.933167,329.976715 312.090332,330.072418 315.232117,329.895447 
	C315.855499,329.860321 316.419952,328.779266 317.011566,328.180511 
	C316.467651,327.692108 315.961731,326.844940 315.372711,326.782562 
	C313.607483,326.595551 311.809723,326.715271 309.442261,326.715271 
	C309.442261,321.024933 309.544525,315.902649 309.347107,310.791931 
	C309.311951,309.882233 308.032623,309.020569 307.327789,308.136749 
	C306.529968,308.955170 305.215698,309.677612 305.042084,310.612000 
	C304.683350,312.542419 304.932404,314.585754 304.930267,317.554260 
M233.904785,316.574036 
	C233.902695,314.584534 234.139572,312.552551 233.796661,310.623627 
	C233.627792,309.673737 232.386505,308.914490 231.630539,308.069000 
	C230.821274,308.873474 229.335327,309.657440 229.310165,310.485718 
	C229.115341,316.900085 229.202728,323.323029 229.202728,329.528107 
	C232.839706,330.745422 234.138168,329.763977 233.940857,326.497986 
	C233.761246,323.524567 233.904755,320.531647 233.904785,316.574036 
M86.968033,329.091736 
	C88.349724,329.407684 89.731415,329.723602 91.606163,330.152252 
	C91.606163,323.337952 91.556839,317.367157 91.624908,311.397675 
	C91.664894,307.890991 89.964149,307.585510 86.873856,308.757507 
	C86.873856,315.241638 86.873856,321.703857 86.968033,329.091736 
z"/>
<path fill="#000000" opacity="1.000000" stroke="none" 
	d="
M172.531342,1.000000 
	C172.346893,1.665011 171.754410,2.834022 171.031769,2.920943 
	C155.106613,4.836454 139.889053,9.276321 125.109940,15.406017 
	C108.681412,22.219810 92.750046,30.267317 79.211075,41.689728 
	C66.726326,52.222725 55.233150,64.113708 44.393826,76.370979 
	C28.637644,94.188309 18.068901,115.254906 10.845559,137.796387 
	C7.327505,148.774994 5.561447,160.313782 2.948251,171.586456 
	C2.779573,172.314102 2.145218,172.933807 1.363743,173.301849 
	C1.000000,115.739647 1.000000,58.479294 1.000000,1.000000 
	C58.020706,1.000000 115.041695,1.000000 172.531342,1.000000 
z"/>
<path fill="#000000" opacity="1.000000" stroke="none" 
	d="
M229.468658,401.000000 
	C229.653107,400.334991 230.245575,399.165955 230.968216,399.079041 
	C246.893356,397.163513 262.110901,392.723694 276.890015,386.593994 
	C293.318542,379.780212 309.249908,371.732727 322.788879,360.310303 
	C335.273621,349.777313 346.766815,337.886353 357.606171,325.629089 
	C373.362366,307.811768 383.931061,286.745148 391.154419,264.203644 
	C394.672485,253.225067 396.438538,241.686264 399.051758,230.413589 
	C399.220428,229.685913 399.854797,229.066193 400.636292,228.698135 
	C401.000000,286.260345 401.000000,343.520721 401.000000,401.000000 
	C343.979279,401.000000 286.958313,401.000000 229.468658,401.000000 
z"/>
<path fill="#000000" opacity="1.000000" stroke="none" 
	d="
M1.000003,229.468658 
	C1.665017,229.653107 2.834030,230.245590 2.920950,230.968231 
	C4.836451,246.893387 9.276317,262.110962 15.406012,276.890045 
	C22.219801,293.318573 30.267288,309.249939 41.689701,322.788910 
	C52.222694,335.273682 64.113708,346.766846 76.370979,357.606171 
	C94.188286,373.362366 115.254875,383.931091 137.796326,391.154449 
	C148.774918,394.672516 160.313690,396.438538 171.586365,399.051727 
	C172.314056,399.220428 172.933792,399.854797 173.301880,400.636292 
	C115.739647,401.000000 58.479294,401.000000 1.000000,401.000000 
	C1.000000,343.979279 1.000000,286.958313 1.000003,229.468658 
z"/>
<path fill="#000000" opacity="1.000000" stroke="none" 
	d="
M401.000000,172.531342 
	C400.334961,172.346909 399.165955,171.754425 399.079041,171.031799 
	C397.163544,155.106628 392.723724,139.889069 386.593994,125.109940 
	C379.780212,108.681427 371.732697,92.750084 360.310333,79.211090 
	C349.777344,66.726318 337.886353,55.233135 325.629089,44.393822 
	C307.811737,28.637659 286.745117,18.068928 264.203613,10.845557 
	C253.225021,7.327481 241.686234,5.561447 230.413544,2.948251 
	C229.685898,2.779572 229.066208,2.145213 228.698151,1.363740 
	C286.260345,1.000000 343.520691,1.000000 401.000000,1.000000 
	C401.000000,58.020706 401.000000,115.041695 401.000000,172.531342 
z"/>
<path fill="#6A0411" opacity="1.000000" stroke="none" 
	d="
M269.977661,73.030548 
	C273.608856,73.031425 276.744202,73.031425 280.282623,73.031425 
	C280.282623,78.557091 280.552795,83.680458 280.203247,88.761192 
	C279.882263,93.427559 276.690887,95.120605 272.231384,95.108955 
	C254.071518,95.061516 235.911438,95.095016 217.751434,95.098595 
	C216.095840,95.098923 214.440262,95.098633 212.186340,95.098633 
	C212.186340,138.977814 212.186340,182.672607 212.186340,226.976166 
	C181.380295,226.476822 152.221146,223.551285 131.619522,197.363998 
	C126.015312,190.240356 123.462219,182.001740 123.521919,172.736313 
	C123.723732,141.415787 123.596794,110.093147 123.595551,78.771317 
	C123.595482,77.111938 123.595535,75.452560 123.595535,73.305519 
	C128.516617,73.305519 133.343658,72.720238 137.960907,73.454430 
	C143.666580,74.361687 146.630142,79.336166 146.635468,86.345886 
	C146.656952,114.668808 146.725693,142.992249 146.553131,171.314133 
	C146.528839,175.299911 147.547546,178.218933 150.421814,180.961517 
	C159.712814,189.826813 170.001602,196.952209 182.505905,200.482941 
	C183.588196,200.788528 184.708511,200.959351 186.661972,201.372879 
	C186.661972,199.227875 186.662003,197.500549 186.661972,195.773239 
	C186.661209,160.119659 186.660690,124.466072 186.659546,88.812492 
	C186.659241,79.147011 192.108704,73.276825 202.009277,73.145218 
	C219.832870,72.908295 237.661423,73.043861 255.487915,73.026718 
	C260.152527,73.022240 264.817169,73.028397 269.977661,73.030548 
z"/>
<path fill="#6D0E1A" opacity="1.000000" stroke="none" 
	d="
M135.000580,287.750793 
	C134.138931,290.119415 133.584061,293.372101 132.342575,293.659576 
	C128.730972,294.495850 124.700615,294.846375 122.412834,290.396484 
	C118.536568,282.856842 114.486465,275.406464 110.493011,267.927338 
	C109.757645,266.550110 108.944382,265.214508 107.530563,262.750275 
	C107.530563,272.556549 107.405968,280.958008 107.592278,289.352509 
	C107.666145,292.680542 106.812775,294.226440 103.185081,294.166260 
	C99.750000,294.109253 99.080879,292.547302 99.118507,289.504913 
	C99.250313,278.849030 99.132812,268.190277 99.174438,257.532898 
	C99.184402,254.981293 98.353943,251.431015 102.045944,251.100815 
	C105.741966,250.770233 110.233032,249.277054 112.747253,254.009949 
	C116.724602,261.497131 120.706001,268.982147 124.690201,276.465698 
	C125.193626,277.411255 125.724144,278.342377 127.086548,279.085480 
	C127.086548,271.189331 127.183456,263.291382 127.036903,255.397934 
	C126.981461,252.411713 127.573341,250.705566 131.043732,250.672256 
	C134.521545,250.638885 135.092560,252.294205 135.052261,255.308105 
	C134.909836,265.963837 134.994858,276.622589 135.000580,287.750793 
z"/>
<path fill="#0D0D0D" opacity="1.000000" stroke="none" 
	d="
M300.005859,250.806641 
	C303.911835,250.527512 304.000916,252.717697 303.982666,255.302597 
	C303.907410,265.965729 303.999176,276.630096 303.918518,287.293121 
	C303.899780,289.770844 305.032867,293.236786 301.239960,293.830994 
	C297.515808,294.414459 293.557434,294.726227 291.288757,290.288239 
	C287.352661,282.588470 283.221130,274.988617 279.164520,267.350555 
	C278.416870,265.942841 277.635925,264.552795 276.325928,262.160309 
	C276.325928,268.482086 276.325928,273.559296 276.325928,278.636505 
	C276.325928,283.595581 276.325928,288.554657 276.325928,293.405365 
	C268.415833,294.792328 268.202942,294.640045 268.192932,287.668793 
	C268.178558,277.671600 268.022217,267.669556 268.315277,257.680969 
	C268.381439,255.425354 269.745880,251.534622 271.035461,251.302643 
	C274.865814,250.613632 279.476227,249.572708 282.019714,254.504242 
	C285.907135,262.041534 289.896851,269.526093 293.848846,277.030060 
	C294.287445,277.862854 294.763123,278.676086 296.085724,279.380066 
	C296.085724,271.195587 296.163849,263.009888 296.040466,254.827271 
	C296.000916,252.202606 296.602173,250.597290 300.005859,250.806641 
z"/>
<path fill="#0C0C0C" opacity="1.000000" stroke="none" 
	d="
M335.560242,292.858276 
	C329.378693,293.307129 323.589966,293.614655 317.806580,294.001953 
	C314.711548,294.209229 313.140472,293.029785 313.157135,289.758118 
	C313.216431,278.116302 313.077728,266.471527 313.339569,254.835220 
	C313.369293,253.515854 315.439301,251.154282 316.601105,251.130524 
	C322.723297,251.005310 328.908173,251.078705 334.973541,251.850861 
	C341.000824,252.618179 345.119324,256.499969 347.544189,262.059448 
	C352.975525,274.511658 347.927826,287.847260 335.560242,292.858276 
M326.376709,287.054230 
	C331.962799,287.098511 336.849365,285.447296 338.839905,279.823456 
	C341.017365,273.671600 341.369843,267.291595 336.964935,261.773590 
	C333.125061,256.963409 327.789825,257.385803 322.066772,258.067230 
	C322.066772,266.997070 321.959869,275.636261 322.216675,284.264648 
	C322.245331,285.226196 324.342194,286.126221 326.376709,287.054230 
z"/>
<path fill="#6C0D19" opacity="1.000000" stroke="none" 
	d="
M63.538803,259.144073 
	C63.549927,265.623749 63.388889,271.627075 63.617737,277.615540 
	C63.871685,284.260712 67.332405,287.737579 72.946724,287.494263 
	C78.275848,287.263306 81.213570,283.686584 81.262421,277.180847 
	C81.317467,269.851440 81.431496,262.516296 81.203781,255.193497 
	C81.090591,251.553726 82.595482,250.641907 85.924164,250.662674 
	C89.186249,250.683060 90.256958,251.874222 90.174179,255.108231 
	C89.978180,262.766296 90.209122,270.434540 90.066071,278.094910 
	C89.864174,288.906097 83.386711,294.754059 71.945740,294.681641 
	C60.704956,294.610474 54.730808,288.850708 54.693501,277.987793 
	C54.663258,269.181549 54.687363,260.375092 54.687363,251.693893 
	C62.893177,249.421646 63.530350,249.957657 63.538803,259.144073 
z"/>
<path fill="#080808" opacity="1.000000" stroke="none" 
	d="
M217.041992,251.586349 
	C222.186172,252.648010 225.238220,255.399643 225.969147,260.232361 
	C226.881500,266.264709 225.003143,271.039795 219.767502,273.236084 
	C222.896820,279.871368 225.943390,286.331207 229.058273,292.935852 
	C220.935547,295.190735 220.084381,294.781281 217.433533,288.286591 
	C216.431503,285.831543 215.418655,283.370941 214.226776,281.005554 
	C212.088028,276.760986 211.122543,276.323303 205.307800,276.762390 
	C205.307800,282.221405 205.307800,287.752655 205.307800,293.656952 
	C202.287888,293.656952 199.888229,293.656952 196.769241,293.656952 
	C196.769241,289.476685 196.768814,285.223480 196.769348,280.970276 
	C196.770416,272.324066 196.851852,263.676697 196.729218,255.032242 
	C196.687363,252.080963 197.626236,250.741699 200.729355,250.916428 
	C206.024887,251.214600 211.332230,251.302856 217.041992,251.586349 
M217.342987,262.790802 
	C215.348801,257.554840 212.036148,256.283356 205.360809,258.193359 
	C205.360809,261.967712 205.360809,265.742035 205.360809,269.461426 
	C213.112717,270.773865 215.767365,269.424683 217.342987,262.790802 
z"/>
<path fill="#101010" opacity="1.000000" stroke="none" 
	d="
M253.846451,257.718079 
	C250.393219,257.717163 247.416656,257.717163 244.019913,257.717163 
	C244.019913,261.199402 244.019913,264.404541 244.019913,268.330627 
	C246.191742,268.330627 248.451172,268.330658 250.710587,268.330658 
	C252.846283,268.330658 254.981995,268.330627 256.964203,268.330627 
	C258.735931,274.384186 258.430664,274.826141 252.939651,274.870270 
	C250.279312,274.891632 247.618759,274.910004 244.959061,274.965546 
	C244.664322,274.971710 244.374512,275.213684 243.841614,275.455627 
	C243.841614,279.090607 243.841614,282.825531 243.841614,287.010223 
	C249.250885,287.010223 254.497665,287.010223 260.085480,287.010223 
	C260.085480,289.532562 260.085480,291.606506 260.085480,293.987244 
	C252.604172,293.987244 245.470108,294.132141 238.353989,293.839996 
	C237.210831,293.793060 235.212631,291.812622 235.191284,290.695770 
	C234.959167,278.557281 234.956726,266.411163 235.182007,254.272491 
	C235.203049,253.139786 237.171509,251.127304 238.300568,251.080338 
	C245.396255,250.785065 252.510284,250.930939 259.895538,250.930939 
	C259.895538,253.330597 259.895538,255.236176 259.895538,257.719025 
	C257.898682,257.719025 256.110901,257.719025 253.846451,257.718079 
z"/>
<path fill="#121212" opacity="1.000000" stroke="none" 
	d="
M159.683624,251.093079 
	C170.255234,250.958755 180.401520,250.958755 190.899933,250.958755 
	C190.899933,253.276978 190.899933,255.338104 190.899933,257.818878 
	C187.093338,257.818878 183.482773,257.818878 179.270767,257.818878 
	C179.270767,269.939240 179.270767,281.664917 179.270767,293.247986 
	C170.706299,295.046600 170.402481,294.816132 170.399185,287.031555 
	C170.395172,277.555206 170.398239,268.078888 170.398239,257.895691 
	C167.838104,257.895691 165.580353,257.909088 163.322815,257.893036 
	C157.872009,257.854218 157.222748,256.783386 159.683624,251.093079 
z"/>
<path fill="#060606" opacity="1.000000" stroke="none" 
	d="
M222.310486,120.178116 
	C221.033005,119.236916 219.617920,118.352211 219.527710,117.348442 
	C219.231567,114.052940 219.416382,110.714218 219.416382,106.984467 
	C231.694672,106.984467 243.733292,106.984467 256.122925,106.984467 
	C256.122925,111.130188 256.122925,115.360008 256.122925,120.180077 
	C244.969833,120.180077 233.874756,120.180077 222.310486,120.178116 
z"/>
<path fill="#070707" opacity="1.000000" stroke="none" 
	d="
M166.312759,73.773376 
	C173.187866,73.579376 179.704742,73.579376 188.013733,73.579376 
	C176.962891,77.914497 176.751556,86.100662 177.337326,94.780960 
	C170.911484,94.780960 164.681580,94.780960 158.065186,94.780960 
	C157.537003,86.453072 158.641251,79.079193 166.312759,73.773376 
z"/>
<path fill="#70111F" opacity="1.000000" stroke="none" 
	d="
M153.166733,269.001373 
	C153.167267,277.453491 153.167267,285.406067 153.167267,293.233093 
	C144.848404,295.158325 144.350754,294.775238 144.358200,287.078918 
	C144.367691,277.257629 144.354752,267.436310 144.360352,257.615021 
	C144.364655,250.070114 144.600235,249.889481 153.166199,251.382462 
	C153.166199,256.988617 153.166199,262.745209 153.166733,269.001373 
z"/>
<path fill="#711B27" opacity="1.000000" stroke="none" 
	d="
M273.082367,328.235535 
	C270.893921,324.114380 268.888031,320.339386 266.882111,316.564423 
	C266.538361,316.598694 266.194611,316.632965 265.850861,316.667236 
	C265.850861,320.014709 265.740021,323.366943 265.883881,326.708221 
	C266.012451,329.693359 264.957550,330.754028 261.717743,329.482178 
	C261.717743,323.966461 261.588562,318.324371 261.802887,312.695343 
	C261.860992,311.170135 262.957550,309.684479 263.577484,308.180695 
	C265.454803,309.164032 267.976593,309.687347 269.075104,311.226501 
	C271.355804,314.422089 272.881317,318.156616 275.792267,321.586426 
	C275.792267,317.945831 275.687866,314.300018 275.868683,310.668396 
	C275.911713,309.804871 276.909210,308.988861 277.467651,308.151001 
	C278.198792,309.013367 279.537903,309.858032 279.563629,310.740936 
	C279.746521,317.026184 279.661102,323.319183 279.661102,330.686707 
	C276.976044,329.803040 275.120483,329.192383 273.082367,328.235535 
z"/>
<path fill="#711B27" opacity="1.000000" stroke="none" 
	d="
M185.461945,313.272522 
	C186.181717,311.263977 186.902267,309.693054 187.622803,308.122131 
	C188.340057,309.676788 189.604218,311.206696 189.675873,312.790558 
	C189.929214,318.390717 189.774521,324.009277 189.774521,330.012299 
	C179.580734,330.464203 181.380829,320.292999 175.757996,316.259033 
	C175.757996,319.207642 175.942093,321.896790 175.700790,324.547211 
	C175.501266,326.738708 177.287857,330.652679 171.780518,329.770111 
	C171.780518,323.601685 171.681717,317.642365 171.863388,311.691620 
	C171.899994,310.492615 173.013458,308.328888 173.607513,308.336761 
	C175.212708,308.358093 177.479721,308.839325 178.276215,309.980896 
	C180.613586,313.330872 182.364395,317.090088 185.462708,320.663788 
	C185.462708,318.345886 185.462708,316.028015 185.461945,313.272522 
z"/>
<path fill="#6F1924" opacity="1.000000" stroke="none" 
	d="
M100.080727,319.518433 
	C100.081894,323.089233 100.081894,326.224945 100.081894,329.515198 
	C97.255508,330.548462 95.914055,330.082886 95.994011,326.931671 
	C96.116119,322.118561 95.872322,317.291687 96.128937,312.489136 
	C96.207474,311.019287 97.417702,309.609894 98.109695,308.172821 
	C99.884529,309.064026 102.304070,309.505066 103.304214,310.937256 
	C105.611511,314.241364 107.229927,318.026550 110.044716,321.461823 
	C110.044716,318.086548 109.877998,314.698273 110.139496,311.343384 
	C110.225456,310.240601 111.420609,309.224213 112.108566,308.168335 
	C112.721054,309.146271 113.837036,310.110687 113.863739,311.104340 
	C114.027908,317.215302 113.946022,323.332886 113.946022,329.918427 
	C103.720711,330.517487 105.860199,319.862671 100.079559,316.063721 
	C100.079559,317.305206 100.079559,318.194275 100.080727,319.518433 
z"/>
<path fill="#6F1824" opacity="1.000000" stroke="none" 
	d="
M242.002228,329.560547 
	C237.409683,325.326874 236.100204,318.220459 238.721985,313.032440 
	C240.998688,308.527283 245.028519,307.489136 249.626114,307.902039 
	C255.660141,308.443939 258.402771,312.526520 258.012360,320.208282 
	C257.679626,326.755096 254.691208,329.980469 248.807480,330.017578 
	C246.663559,330.031097 244.518341,329.836731 242.002228,329.560547 
M253.183136,316.855774 
	C252.616440,313.787170 251.071381,310.983521 247.759003,311.763123 
	C245.739563,312.238403 243.033005,314.732635 242.774292,316.614166 
	C242.367630,319.571686 243.380051,322.947662 244.629211,325.776581 
	C245.015518,326.651428 249.352463,327.085754 249.771423,326.411407 
	C251.391663,323.803467 252.160263,320.666412 253.183136,316.855774 
z"/>
<path fill="#731D29" opacity="1.000000" stroke="none" 
	d="
M152.214020,318.052856 
	C152.213699,316.903137 152.214264,316.237549 152.212769,315.571960 
	C152.195023,307.658447 152.224472,307.401001 159.670898,308.255402 
	C162.170013,308.542175 165.742004,309.965759 166.545700,311.844299 
	C167.515091,314.110199 166.060837,317.412994 165.655670,320.266937 
	C165.227692,320.206482 164.799698,320.146027 164.371719,320.085571 
	C165.780701,323.170319 167.189682,326.255096 168.652466,329.457672 
	C160.467758,332.346191 163.634872,320.955231 157.100510,321.604919 
	C157.100510,324.199188 157.100510,326.761139 157.100510,329.674622 
	C155.247559,329.674622 153.908966,329.674622 152.213928,329.674622 
	C152.213928,325.806641 152.213928,322.171814 152.214020,318.052856 
M158.326309,311.720337 
	C157.724960,313.625275 157.123596,315.530243 156.522247,317.435181 
	C157.031601,317.804413 157.540955,318.173676 158.050308,318.542908 
	C159.608490,317.479340 161.166672,316.415771 162.724854,315.352203 
	C161.544434,314.127777 160.364014,312.903320 158.326309,311.720337 
z"/>
<path fill="#6F1724" opacity="1.000000" stroke="none" 
	d="
M292.062347,308.130005 
	C293.610748,308.820343 295.439545,309.262207 295.804718,310.246857 
	C298.150726,316.572510 300.176056,323.017059 302.289246,329.370026 
	C297.623047,331.735138 297.186371,327.903625 295.756714,325.312622 
	C292.424042,325.721680 287.984314,323.076263 286.719147,329.097809 
	C286.595459,329.686432 284.291046,329.816864 281.905457,330.450317 
	C284.585144,322.731384 286.844482,316.062653 289.280579,309.459167 
	C289.519440,308.811737 290.844849,308.565155 292.062347,308.130005 
M294.589752,319.886108 
	C293.855804,317.892853 293.121857,315.899597 291.902039,312.586792 
	C290.690918,316.484436 289.950867,318.866028 288.754272,322.716858 
	C291.573486,321.736786 293.168884,321.182129 294.589752,319.886108 
z"/>
<path fill="#6E1521" opacity="1.000000" stroke="none" 
	d="
M196.914490,328.909576 
	C195.430756,329.572540 194.070053,329.855499 192.075424,330.270294 
	C194.418762,323.295471 196.395279,317.012329 198.714859,310.858521 
	C199.159195,309.679688 200.925583,308.343262 202.133667,308.291779 
	C203.354797,308.239838 205.351562,309.420044 205.779099,310.532837 
	C208.151276,316.706970 210.148880,323.025085 211.405991,330.466339 
	C209.930069,329.589783 208.471252,328.682709 206.973618,327.844971 
	C205.337784,326.929840 203.753937,325.752930 201.989151,325.277100 
	C199.402817,324.579712 197.453125,325.565094 196.914490,328.909576 
M199.376129,320.610046 
	C201.074860,321.107086 202.773590,321.604095 205.528717,322.410217 
	C204.218277,318.604401 203.416748,316.276581 202.108627,312.477509 
	C200.894531,315.945892 200.207123,317.909698 199.376129,320.610046 
z"/>
<path fill="#701A26" opacity="1.000000" stroke="none" 
	d="
M143.901642,326.883118 
	C145.656982,327.413208 146.984482,327.943298 148.311966,328.473389 
	C146.971100,328.982849 145.658890,329.809387 144.283218,329.933746 
	C141.677826,330.169281 139.036011,330.001831 136.095978,330.001831 
	C136.095978,322.698425 136.095978,315.803619 136.095978,308.109039 
	C139.419876,308.109039 142.682556,307.990540 145.925232,308.192749 
	C146.731735,308.243042 147.473572,309.330170 148.245148,309.940704 
	C147.453186,310.525421 146.717804,311.486603 145.857391,311.615936 
	C144.103622,311.879547 142.282486,311.694855 140.242111,311.694855 
	C140.242111,313.551575 140.242111,314.976990 140.242111,316.419952 
	C140.499496,316.592316 140.737335,316.833435 141.023972,316.930481 
	C143.092239,317.630768 145.170395,318.301880 147.245422,318.982239 
	C145.154770,319.841705 143.064102,320.701141 140.413116,321.790955 
	C140.463821,323.494995 137.822845,327.105530 143.901642,326.883118 
z"/>
<path fill="#131313" opacity="1.000000" stroke="none" 
	d="
M221.794876,135.256317 
	C227.154175,135.244736 232.089569,135.244736 237.700562,135.244736 
	C236.294739,139.436234 235.513382,143.377487 233.591675,146.648865 
	C232.889221,147.844696 228.237808,148.471237 227.521835,147.601273 
	C224.643661,144.104111 222.599457,139.920273 220.296936,135.961212 
	C220.286987,135.944122 220.997131,135.508224 221.794876,135.256317 
z"/>
<path fill="#792833" opacity="1.000000" stroke="none" 
	d="
M220.830109,320.009064 
	C220.830002,322.483215 220.691406,324.487732 220.861725,326.465637 
	C221.141327,329.712769 219.840271,330.752350 216.311447,329.591705 
	C216.311447,324.036957 216.311447,318.295349 216.311447,313.623718 
	C213.724380,311.927063 211.957123,310.768066 210.189850,309.609131 
	C212.251755,309.091492 214.288620,308.353058 216.382294,308.115631 
	C218.677338,307.855316 221.046188,307.870361 223.340805,308.132935 
	C224.574219,308.274078 225.719437,309.185822 226.904465,309.749847 
	C225.720932,310.480072 224.575897,311.287659 223.336029,311.904694 
	C222.794693,312.174133 222.059158,312.053345 220.830353,312.160400 
	C220.830353,314.642334 220.830353,317.084900 220.830109,320.009064 
z"/>
<path fill="#7A2935" opacity="1.000000" stroke="none" 
	d="
M127.010941,322.922302 
	C127.010971,325.373993 127.010971,327.343750 127.010971,329.482269 
	C123.857010,330.587372 122.191628,330.251434 122.332870,326.511536 
	C122.506927,321.902191 122.374443,317.281281 122.374443,313.255554 
	C120.143448,311.978882 118.395477,310.978638 116.647522,309.978363 
	C118.732262,309.339569 120.779732,308.455200 122.912292,308.131531 
	C125.016167,307.812225 127.245026,307.815460 129.344116,308.148865 
	C130.655579,308.357239 131.828293,309.438843 133.063263,310.128601 
	C131.922867,310.732422 130.813049,311.408630 129.628983,311.909119 
	C129.050430,312.153625 128.333649,312.071045 127.010902,312.203430 
	C127.010902,315.612457 127.010902,319.026398 127.010941,322.922302 
z"/>
<path fill="#6E1220" opacity="1.000000" stroke="none" 
	d="
M304.930878,317.068451 
	C304.932404,314.585754 304.683350,312.542419 305.042084,310.612000 
	C305.215698,309.677612 306.529968,308.955170 307.327789,308.136749 
	C308.032623,309.020569 309.311951,309.882233 309.347107,310.791931 
	C309.544525,315.902649 309.442261,321.024933 309.442261,326.715271 
	C311.809723,326.715271 313.607483,326.595551 315.372711,326.782562 
	C315.961731,326.844940 316.467651,327.692108 317.011566,328.180511 
	C316.419952,328.779266 315.855499,329.860321 315.232117,329.895447 
	C312.090332,330.072418 308.933167,329.976715 304.930267,329.976715 
	C304.930267,325.698547 304.930267,321.626404 304.930878,317.068451 
z"/>
<path fill="#7C2C37" opacity="1.000000" stroke="none" 
	d="
M233.905319,317.060669 
	C233.904755,320.531647 233.761246,323.524567 233.940857,326.497986 
	C234.138168,329.763977 232.839706,330.745422 229.202728,329.528107 
	C229.202728,323.323029 229.115341,316.900085 229.310165,310.485718 
	C229.335327,309.657440 230.821274,308.873474 231.630524,308.068970 
	C232.386505,308.914490 233.627792,309.673737 233.796661,310.623627 
	C234.139572,312.552551 233.902695,314.584534 233.905319,317.060669 
z"/>
<path fill="#72222C" opacity="1.000000" stroke="none" 
	d="
M86.920944,328.628906 
	C86.873856,321.703857 86.873856,315.241638 86.873856,308.757507 
	C89.964149,307.585510 91.664894,307.890991 91.624908,311.397675 
	C91.556839,317.367157 91.606163,323.337952 91.606163,330.152252 
	C89.731415,329.723602 88.349724,329.407684 86.920944,328.628906 
z"/>
<path fill="#F8F8F8" opacity="1.000000" stroke="none" 
	d="
M325.928314,287.054504 
	C324.342194,286.126221 322.245331,285.226196 322.216675,284.264648 
	C321.959869,275.636261 322.066772,266.997070 322.066772,258.067230 
	C327.789825,257.385803 333.125061,256.963409 336.964935,261.773590 
	C341.369843,267.291595 341.017365,273.671600 338.839905,279.823456 
	C336.849365,285.447296 331.962799,287.098511 325.928314,287.054504 
z"/>
<path fill="#EBEBEB" opacity="1.000000" stroke="none" 
	d="
M217.392273,263.148315 
	C215.767365,269.424683 213.112717,270.773865 205.360809,269.461426 
	C205.360809,265.742035 205.360809,261.967712 205.355072,258.190338 
	C212.036148,256.283356 215.348801,257.554840 217.392273,263.148315 
z"/>
<path fill="#F8F4F5" opacity="1.000000" stroke="none" 
	d="
M253.214630,317.291138 
	C252.160263,320.666412 251.391663,323.803467 249.771423,326.411407 
	C249.352463,327.085754 245.015518,326.651428 244.629211,325.776581 
	C243.380051,322.947662 242.367630,319.571686 242.774292,316.614166 
	C243.033005,314.732635 245.739563,312.238403 247.759003,311.763123 
	C251.071381,310.983521 252.616440,313.787170 253.214630,317.291138 
z"/>
<path fill="#F3EBEC" opacity="1.000000" stroke="none" 
	d="
M158.754959,311.699615 
	C160.364014,312.903320 161.544434,314.127777 162.724854,315.352203 
	C161.166672,316.415771 159.608490,317.479340 158.050308,318.542908 
	C157.540955,318.173676 157.031601,317.804413 156.522247,317.435181 
	C157.123596,315.530243 157.724960,313.625275 158.754959,311.699615 
z"/>
<path fill="#E6D5D7" opacity="1.000000" stroke="none" 
	d="
M294.677002,320.256805 
	C293.168884,321.182129 291.573486,321.736786 288.754272,322.716858 
	C289.950867,318.866028 290.690918,316.484436 291.902039,312.586792 
	C293.121857,315.899597 293.855804,317.892853 294.677002,320.256805 
z"/>
<path fill="#E2CFD1" opacity="1.000000" stroke="none" 
	d="
M199.447906,320.241760 
	C200.207123,317.909698 200.894531,315.945892 202.108627,312.477509 
	C203.416748,316.276581 204.218277,318.604401 205.528717,322.410217 
	C202.773590,321.604095 201.074860,321.107086 199.447906,320.241760 
z"/>
</svg>