<svg version="1.1" id="Layer_1" xmlns="http://www.w3.org/2000/svg" xmlns:xlink="http://www.w3.org/1999/xlink" x="0px" y="0px"
	 width="100%" viewBox="0 0 384 337" enable-background="new 0 0 384 337" xml:space="preserve">
<path fill="#FEFDFD" opacity="1.000000" stroke="none" 
	d="
M220.000000,338.000000 
	C146.691925,338.000000 73.883842,338.000000 1.037879,338.000000 
	C1.037879,225.730881 1.037879,113.461739 1.037879,1.096302 
	C128.891357,1.096302 256.782806,1.096302 384.837128,1.096302 
	C384.837128,113.333145 384.837128,225.666550 384.837128,338.000000 
	C330.128510,338.000000 275.314240,338.000000 220.000000,338.000000 
M170.783737,323.184265 
	C170.783737,323.184265 170.654984,323.246887 170.801636,323.798401 
	C171.221436,324.153625 171.641220,324.508881 172.048889,324.948456 
	C172.048889,324.948456 172.133560,324.938843 172.461700,325.575745 
	C173.991119,325.393616 175.520554,325.211456 176.995499,325.007965 
	C176.995499,325.007965 177.031921,325.053894 177.723206,324.528381 
	C177.723206,315.789398 177.723206,307.050415 177.723206,296.826599 
	C175.650421,298.263275 174.400391,299.129669 172.967606,300.909515 
	C172.967606,305.184082 172.967606,309.458618 172.967606,313.733185 
	C169.599991,309.406494 167.640625,304.781494 164.833908,300.745850 
	C163.736511,299.167999 160.772781,298.505157 158.579468,298.307312 
	C157.926498,298.248383 156.377777,301.159943 156.313416,302.753815 
	C156.052567,309.215454 156.067825,315.699799 156.333115,322.161316 
	C156.386002,323.449432 157.984222,324.674042 158.869873,325.927948 
	C159.746201,324.650177 161.278214,323.421448 161.378128,322.085602 
	C161.701462,317.762909 161.498825,313.400879 161.498825,309.053986 
	C161.850021,309.002808 162.201218,308.951599 162.552429,308.900421 
	C165.042557,313.270599 167.532700,317.640808 170.017471,322.552063 
	C170.251587,322.805511 170.485687,323.058929 170.783737,323.184265 
M84.231972,231.035324 
	C83.487793,230.551422 82.743607,230.067535 81.406105,229.160278 
	C80.924881,229.175171 80.443657,229.190048 79.088875,228.987823 
	C78.095711,228.977158 77.102539,228.956589 76.109383,228.957458 
	C69.091171,228.963577 68.949837,229.105698 68.946411,236.278946 
	C68.942223,245.054276 68.873215,253.830414 68.969749,262.604675 
	C69.034752,268.512543 69.337898,274.417786 69.596207,280.409912 
	C69.596207,280.409912 69.632942,280.508881 70.177406,280.963226 
	C72.877655,280.726471 75.577911,280.489685 78.090591,279.974030 
	C78.090591,279.974030 78.260323,280.262634 78.812965,279.756042 
	C78.809212,278.518433 78.805458,277.280792 78.959244,275.357117 
	C78.903969,274.894806 78.848686,274.432465 78.966988,273.052704 
	C78.910347,267.381165 78.853706,261.709595 78.961227,255.355347 
	C78.906250,254.893784 78.851280,254.432205 78.967484,253.136642 
	C78.881096,251.445557 78.794708,249.754471 78.824806,247.314163 
	C78.891380,246.333008 78.957947,245.351852 79.080429,243.546661 
	C80.283463,245.815018 81.117920,247.387939 81.951958,248.961090 
	C86.856003,258.210846 91.709755,267.487793 96.686028,276.698547 
	C99.018814,281.016449 103.701973,282.590057 109.186302,281.141113 
	C113.761017,279.932495 112.224403,276.150452 112.252281,273.268463 
	C112.377960,260.276154 112.164017,247.279449 112.393806,234.290009 
	C112.464615,230.287109 111.417114,228.542053 107.191025,228.601395 
	C102.885452,228.661865 102.038910,230.698151 102.147865,234.537445 
	C102.350746,241.686111 102.079094,248.848236 101.462540,256.209229 
	C100.344086,256.138489 99.225639,256.067749 97.615326,255.485138 
	C95.097275,250.977585 92.579224,246.470016 89.971413,241.263336 
	C88.694771,239.038574 87.418129,236.813828 86.153519,234.222061 
	C86.153519,234.222061 85.854561,234.008850 85.849869,233.426041 
	C85.399590,232.810699 84.949310,232.195374 84.162643,231.770248 
	C84.162643,231.770248 84.470047,231.536087 84.231972,231.035324 
M205.239380,195.288788 
	C205.239380,144.035843 205.239380,92.782890 205.239380,41.174358 
	C207.717682,41.174358 209.522507,41.174503 211.327316,41.174339 
	C233.655426,41.172291 255.983582,41.192089 278.311615,41.152817 
	C283.927856,41.142937 287.483093,38.666336 287.815979,33.695885 
	C288.256958,27.111412 287.924622,20.475151 287.924622,13.592209 
	C285.990234,13.479811 284.530792,13.321534 283.071289,13.321076 
	C255.077881,13.312306 227.084015,13.246765 199.091537,13.410984 
	C194.996460,13.435006 190.788589,14.153181 186.840836,15.279167 
	C178.252686,17.728704 174.118591,23.668842 174.118622,32.614765 
	C174.118744,76.271225 174.118683,119.927689 174.118683,163.584152 
	C174.118683,165.340958 174.118668,167.097763 174.118668,169.164276 
	C172.525925,168.846527 171.552750,168.720428 170.618759,168.455963 
	C154.333786,163.844315 140.734421,154.838730 129.260773,142.608383 
	C127.570053,140.806137 126.432266,137.722153 126.419312,135.224030 
	C126.238754,100.399780 126.300514,65.574287 126.299110,30.749092 
	C126.298721,20.980860 122.087349,15.414750 112.637306,13.348926 
	C109.761383,12.720237 106.646805,13.279060 103.678932,12.953248 
	C99.006615,12.440323 97.847038,14.408364 97.866104,18.919016 
	C98.032257,58.242455 97.819733,97.568008 98.125847,136.889771 
	C98.169853,142.542633 99.550957,148.523438 101.735474,153.759079 
	C108.847191,170.803772 122.338875,181.525055 138.743866,189.029968 
	C159.664215,198.600571 181.878143,200.720276 204.952606,200.362305 
	C205.039230,199.113419 205.139252,197.671356 205.239380,195.288788 
M282.933258,250.655273 
	C282.933258,248.516418 282.933258,246.377563 282.933258,243.230026 
	C288.880646,254.423676 294.510773,264.378326 299.487549,274.649567 
	C302.094299,280.029572 305.773834,281.786285 311.397888,281.295471 
	C314.701050,281.007172 316.199707,279.846741 316.102814,276.403473 
	C315.943695,270.750244 316.064362,265.089172 316.064911,259.431427 
	C316.065857,249.495499 316.065186,239.559555 316.065186,229.769348 
	C307.224976,227.593903 306.409088,228.179581 306.405640,236.179764 
	C306.403564,241.005508 306.404724,245.831238 306.404602,250.656982 
	C306.404480,254.797455 306.404602,258.937927 306.404602,263.078400 
	C304.893707,262.315399 304.485596,261.470673 304.047852,260.641541 
	C299.166809,251.396423 294.370148,242.105026 289.354309,232.933563 
	C287.258087,229.100647 281.600281,227.575409 276.032623,229.116959 
	C271.666443,230.325867 272.939728,234.107742 272.916229,237.048233 
	C272.813843,249.860535 272.867676,262.674194 272.894257,275.487305 
	C272.897888,277.243073 273.067352,278.998505 273.152069,280.603271 
	C282.430115,282.540100 282.930847,282.154419 282.934174,273.582123 
	C282.937042,266.260315 282.933594,258.938507 282.933258,250.655273 
M369.136505,266.421722 
	C369.731720,260.848969 371.074249,255.233841 370.761292,249.712555 
	C370.171478,239.306900 363.157043,231.532242 352.782990,229.970032 
	C345.604187,228.889023 338.199585,229.073914 330.905640,229.211426 
	C329.625702,229.235535 327.331177,231.802460 327.304230,233.229034 
	C327.030640,247.708511 327.149048,262.195129 327.111389,276.679596 
	C327.103241,279.809509 328.543518,281.274750 331.658691,281.215302 
	C337.481659,281.104248 343.336945,281.381775 349.121429,280.860748 
	C358.160614,280.046509 365.289398,276.023407 369.136505,266.421722 
M197.153458,268.559143 
	C197.153458,265.787415 197.153458,263.015686 197.153458,260.376556 
	C202.633652,259.141846 205.781387,261.344025 207.728821,265.613220 
	C209.039413,268.486359 210.198105,271.429993 211.383423,274.358795 
	C214.569321,282.231018 215.944138,282.860138 226.088959,280.115051 
	C222.212463,272.035126 218.432022,264.155396 214.628525,256.227631 
	C221.280167,252.435059 223.753464,247.366516 222.130814,239.796921 
	C220.794540,233.563232 215.520401,229.527542 207.651123,229.134155 
	C202.331772,228.868256 196.979874,229.232635 191.663208,228.939972 
	C187.440430,228.707520 186.149521,230.407303 186.196594,234.477463 
	C186.362320,248.804916 186.248367,263.135529 186.275620,277.464844 
	C186.277710,278.563751 186.553894,279.662140 186.732605,280.981689 
	C190.227249,280.981689 193.434875,280.981689 197.153381,280.981689 
	C197.153381,276.798401 197.153381,273.164642 197.153458,268.559143 
M26.021397,262.037842 
	C26.011375,252.881058 25.719091,243.712296 26.106895,234.572388 
	C26.309776,229.790894 24.558599,228.171829 20.137894,228.669830 
	C18.532816,228.850662 16.934408,229.090729 15.069042,229.338867 
	C15.069042,241.999008 14.558352,254.316788 15.265601,266.564240 
	C15.672769,273.615173 20.085045,279.012848 27.312418,280.863068 
	C30.949020,281.794006 34.857109,281.977600 38.640461,281.963684 
	C50.141396,281.921448 57.709267,274.489136 57.946732,262.973694 
	C58.149208,253.154739 57.807358,243.321243 58.155174,233.510101 
	C58.313370,229.047668 56.013783,228.674164 52.675980,228.642700 
	C49.087158,228.608902 46.727497,229.124084 46.911667,233.806778 
	C47.271252,242.949615 47.045639,252.116791 47.004593,261.273651 
	C46.972313,268.475739 43.956020,272.431824 38.179218,273.011963 
	C31.169514,273.715912 27.456747,270.619324 26.021397,262.037842 
M243.483017,268.440491 
	C243.483017,265.145294 243.483017,261.850098 243.483017,258.106567 
	C248.212662,258.106567 252.517593,257.960144 256.806854,258.156494 
	C259.820160,258.294464 260.996918,257.279327 260.907654,254.182480 
	C260.826416,251.363388 260.182800,249.819519 256.942596,249.974091 
	C252.542206,250.183990 248.124283,250.026352 243.789185,250.026352 
	C243.789185,245.493774 243.789185,241.745331 243.789185,237.638885 
	C248.407104,237.638885 252.710999,237.634567 257.014893,237.639877 
	C264.083984,237.648590 264.849426,236.529449 262.602478,229.011719 
	C254.042236,229.011719 245.387268,229.077652 236.734207,228.977463 
	C233.524292,228.940277 232.864777,230.564438 232.879730,233.360764 
	C232.957230,247.859482 232.999298,262.359589 232.860992,276.857361 
	C232.829071,280.203644 234.180557,281.269043 237.275284,281.238037 
	C244.940582,281.161346 252.608673,281.131317 260.272614,281.261749 
	C263.718933,281.320374 263.888428,279.251099 263.928772,276.711456 
	C263.970062,274.112671 263.240326,272.679688 260.237549,272.812073 
	C255.746521,273.010071 251.232849,272.707825 246.743362,272.922485 
	C243.961761,273.055450 243.166687,271.897125 243.483017,268.440491 
M140.076797,232.595932 
	C139.492203,236.774429 141.322021,238.289322 145.450119,237.892822 
	C148.492203,237.600616 151.584900,237.835449 155.093689,237.835449 
	C155.093689,252.671951 155.093689,266.716705 155.093689,280.660217 
	C165.506424,282.560455 165.747528,282.371521 165.752792,272.579803 
	C165.758926,261.158661 165.754211,249.737503 165.754211,237.662567 
	C170.724335,237.662567 175.258911,237.662567 179.732773,237.662567 
	C179.732773,234.438110 179.732773,231.889496 179.732773,229.001053 
	C167.333191,229.001053 155.389786,228.928452 143.450577,229.119385 
	C142.322708,229.137405 141.221329,230.811295 140.076797,232.595932 
M213.855545,60.635811 
	C213.855545,64.216293 213.855545,67.796768 213.855545,71.408096 
	C229.272141,71.408096 243.965042,71.408096 258.652649,71.408096 
	C258.652649,65.719704 258.652649,60.352470 258.652649,54.976212 
	C243.603302,54.976212 228.894211,54.976212 213.855331,54.976212 
	C213.855331,56.738449 213.855331,58.216942 213.855545,60.635811 
M142.067200,23.768391 
	C140.943893,29.324900 139.820602,34.881409 138.663452,40.605324 
	C147.932587,40.605324 155.789536,40.605324 163.694244,40.605324 
	C163.627396,39.663284 163.579956,39.171532 163.559372,38.678658 
	C163.184021,29.692289 162.737396,20.688396 173.553162,16.762785 
	C174.076309,16.572910 174.729340,15.139059 174.537994,14.892286 
	C174.028534,14.235203 173.101227,13.537722 172.321136,13.515341 
	C167.994034,13.391195 163.622467,13.835503 159.338882,13.388270 
	C151.204605,12.538999 146.117371,16.486309 142.067200,23.768391 
M134.328781,263.496643 
	C134.328247,253.695374 134.053207,243.883133 134.444901,234.097565 
	C134.636032,229.322220 132.471481,228.571106 128.589462,228.594666 
	C124.808662,228.617630 122.976891,229.609024 123.066261,234.001266 
	C123.346695,247.783691 123.161125,261.575531 123.162651,275.363739 
	C123.163307,281.254639 124.213951,282.174133 130.236984,281.452545 
	C131.514618,281.299438 132.765610,280.924103 134.328598,280.586395 
	C134.328598,275.092834 134.328598,269.793427 134.328781,263.496643 
M267.504242,298.055908 
	C266.647644,299.204071 265.089020,300.328827 265.049774,301.504272 
	C264.816833,308.477905 264.825562,315.466766 265.043945,322.441406 
	C265.080902,323.621277 266.529816,324.756989 267.326385,325.913086 
	C268.258728,324.714813 269.897705,323.571014 269.995087,322.308350 
	C270.329285,317.974609 270.123383,313.599243 270.123383,309.239746 
	C270.542267,309.148743 270.961182,309.057739 271.380066,308.966766 
	C273.992859,313.832489 276.365448,318.854431 279.365723,323.468140 
	C280.258423,324.840881 282.901978,325.532196 284.765869,325.576202 
	C285.448059,325.592285 286.761078,322.847656 286.815613,321.327637 
	C287.047821,314.853180 286.775513,308.361481 286.969574,301.884521 
	C287.089966,297.867126 285.321198,297.513611 281.926941,298.595276 
	C281.926941,301.446045 281.926910,304.088226 281.926910,306.730408 
	C281.926910,309.462372 281.926941,312.194336 281.926941,314.926300 
	C278.933502,310.720428 276.993622,306.164490 274.307220,302.102264 
	C273.080200,300.246826 270.381500,299.364624 267.504242,298.055908 
M64.913750,301.845764 
	C64.915688,308.509613 64.759178,315.180328 65.048073,321.831726 
	C65.108673,323.226807 66.808594,324.550720 67.753105,325.907410 
	C68.539040,324.561554 69.913254,323.253510 70.002663,321.862885 
	C70.292427,317.355774 70.110916,312.818359 70.110916,308.292633 
	C73.553406,312.856537 75.726074,317.698669 78.563011,322.114014 
	C79.687408,323.864014 82.286942,324.666199 84.214859,325.899933 
	C85.106979,324.047272 86.666267,322.230621 86.768471,320.335358 
	C87.099922,314.188995 86.793877,308.011383 86.937279,301.850555 
	C87.029495,297.888397 85.344505,297.341034 81.908463,298.728943 
	C81.908463,301.540222 81.908463,304.190857 81.908463,306.841522 
	C81.908463,309.542053 81.908463,312.242554 81.908463,316.240997 
	C79.979218,312.659210 78.712753,310.364136 77.500153,308.040955 
	C76.268341,305.680969 75.425980,303.016296 73.774429,301.010986 
	C72.590462,299.573486 70.420326,298.475037 68.563637,298.244537 
	C67.473442,298.109192 66.135521,299.969208 64.913750,301.845764 
M260.085663,317.270477 
	C260.323761,314.318726 260.916199,311.342529 260.714844,308.421051 
	C260.430817,304.299408 258.818451,300.700470 254.702133,298.808075 
	C248.020111,295.736145 239.848312,298.279602 237.061584,304.320740 
	C233.432205,312.188629 235.990738,322.287506 242.732178,325.150879 
	C248.367615,327.544464 256.456635,326.496857 260.085663,317.270477 
M143.023438,298.043274 
	C140.698135,298.037781 138.335373,297.785919 136.063431,298.131378 
	C134.936768,298.302673 133.098038,299.549408 133.077240,300.348572 
	C132.858322,308.756653 132.941849,317.172607 132.941849,325.984985 
	C142.849030,325.819611 136.378494,317.766479 139.887466,314.558258 
	C144.391418,314.852173 144.429321,319.286896 145.663116,322.301880 
	C147.108200,325.833160 148.993149,326.843750 153.171295,324.968079 
	C151.396835,320.819244 149.686829,316.821075 147.917725,312.684723 
	C153.976898,306.088531 152.522079,300.392792 143.023438,298.043274 
M185.849579,325.626831 
	C189.544037,318.436920 189.544037,318.436920 197.721909,319.440552 
	C199.409393,322.375793 198.944321,328.234009 205.942490,324.948547 
	C203.118851,316.557587 200.408890,308.082367 197.282837,299.763550 
	C196.903519,298.754120 194.200058,297.997589 192.722809,298.201813 
	C191.342377,298.392731 189.490158,299.764435 189.002808,301.053833 
	C186.419388,307.888794 184.347702,314.916412 181.796829,321.764832 
	C180.419937,325.461395 181.752457,326.309052 185.849579,325.626831 
M296.037384,322.503479 
	C297.728912,315.946381 302.856873,320.403534 306.337433,318.872772 
	C308.073822,322.201752 307.614410,327.953156 314.231262,325.267731 
	C314.023163,324.006134 313.977570,322.698578 313.582733,321.506683 
	C311.341095,314.739899 309.201630,307.927063 306.574799,301.309540 
	C305.995178,299.849335 303.574310,298.260742 302.026398,298.285767 
	C300.479309,298.310730 298.164886,299.967255 297.573120,301.458649 
	C295.070892,307.764709 293.059113,314.267212 290.930756,320.718597 
	C290.443512,322.195465 290.205658,323.754669 289.853027,325.276001 
	C290.298706,325.704071 290.744385,326.132141 291.190033,326.560211 
	C292.765961,325.479950 294.341858,324.399719 296.037384,322.503479 
M112.829643,323.560791 
	C114.095085,324.280518 115.319649,325.516968 116.633797,325.620880 
	C120.256241,325.907410 123.916168,325.719940 128.045486,325.719940 
	C128.199738,324.130951 128.345886,322.625336 128.547012,320.553284 
	C124.840561,320.553284 121.766335,320.553284 118.525261,320.553284 
	C118.403221,319.094757 118.291176,318.129761 118.250328,317.161774 
	C118.209953,316.205078 118.241508,315.245361 118.241508,314.359802 
	C127.166061,312.788330 127.166061,312.788330 126.181152,308.793335 
	C123.719673,308.793335 121.141365,308.793335 118.564980,308.793335 
	C118.564980,306.599304 118.564980,304.879059 118.564980,302.808258 
	C121.210815,302.808258 123.541603,303.011627 125.806015,302.712524 
	C126.770401,302.585144 127.596016,301.407104 128.484695,300.706512 
	C127.614716,299.810699 126.815559,298.242950 125.861771,298.142426 
	C122.741028,297.813507 119.558777,298.131042 116.410156,297.984985 
	C113.608826,297.855072 112.623299,298.940857 112.690010,301.765839 
	C112.854622,308.737122 112.755081,315.714600 112.829643,323.560791 
M223.710892,105.159607 
	C226.209366,104.808754 230.177582,105.291214 230.935913,103.953735 
	C233.394897,99.616714 234.676956,94.612396 236.524536,89.557983 
	C228.743652,89.557983 221.590652,89.557983 213.785950,89.557983 
	C217.116684,94.906807 220.140335,99.762474 223.710892,105.159607 
M101.146851,325.855499 
	C101.640472,324.066650 102.501854,322.289581 102.559731,320.486725 
	C102.743538,314.761597 102.627731,309.026825 102.627731,303.034821 
	C104.400993,303.034821 105.517952,303.339355 106.319527,302.966278 
	C107.657211,302.343719 108.793121,301.287628 110.013969,300.414062 
	C108.715004,299.617279 107.456970,298.226349 106.109512,298.133514 
	C101.813408,297.837524 97.480644,298.130524 93.168579,297.992249 
	C89.396004,297.871246 89.012810,299.659943 90.132362,302.785614 
	C92.267609,302.961792 94.339989,303.132812 96.810379,303.336670 
	C96.810379,309.713745 96.854317,315.825226 96.788956,321.935547 
	C96.762466,324.411285 97.168320,326.304657 101.146851,325.855499 
M222.802048,298.726959 
	C216.269745,298.411041 209.737427,298.095093 202.721619,297.755798 
	C202.991409,300.137695 203.148041,301.520538 203.294861,302.816681 
	C205.720169,302.996979 207.653351,303.140717 209.949127,303.311401 
	C209.949127,309.441193 209.918457,315.240875 209.964600,321.039978 
	C209.982407,323.278473 209.336624,326.003662 213.102936,325.956604 
	C216.660797,325.912140 215.848694,323.281830 215.873566,321.282440 
	C215.947556,315.337097 215.900101,309.390228 215.900101,304.297638 
	C218.341919,301.550873 223.689911,305.634979 222.802048,298.726959 
M317.077911,309.524780 
	C317.075775,313.674316 316.845398,317.843658 317.203217,321.961914 
	C317.318512,323.289062 318.872498,325.439514 319.956909,325.563477 
	C323.819061,326.004883 327.762390,325.735901 331.756531,325.735901 
	C331.756531,323.566437 331.756531,322.154083 331.756531,320.474304 
	C328.767120,320.288757 326.042267,320.119598 322.847809,319.921295 
	C322.847809,312.518768 322.847809,305.460480 322.847809,298.540070 
	C318.562500,297.227814 316.621155,298.276245 317.036285,302.567749 
	C317.227173,304.541351 317.074280,306.548187 317.077911,309.524780 
M231.377945,324.631897 
	C231.483521,317.347076 231.423950,310.054688 231.755783,302.780182 
	C231.959015,298.324432 230.381500,296.991974 225.746765,298.720734 
	C225.746765,306.841095 225.563156,315.099854 225.832199,323.343903 
	C225.948776,326.915497 228.654297,326.210480 231.377945,324.631897 
M59.885933,319.276917 
	C59.890129,313.811859 59.911804,308.346710 59.893497,302.881744 
	C59.875904,297.628967 59.474087,297.360626 53.855083,298.961304 
	C53.855083,306.801605 53.751209,314.737610 53.974087,322.664368 
	C54.005276,323.773529 55.640202,324.837585 56.532761,325.922516 
	C57.649967,324.847839 58.910603,323.879028 59.817970,322.649506 
	C60.213772,322.113159 59.885559,321.042480 59.885933,319.276917 
z"/>
<path fill="#690411" opacity="1.000000" stroke="none" 
	d="
M205.239319,195.759033 
	C205.139252,197.671356 205.039230,199.113419 204.952606,200.362305 
	C181.878143,200.720276 159.664215,198.600571 138.743866,189.029968 
	C122.338875,181.525055 108.847191,170.803772 101.735474,153.759079 
	C99.550957,148.523438 98.169853,142.542633 98.125847,136.889771 
	C97.819733,97.568008 98.032257,58.242455 97.866104,18.919016 
	C97.847038,14.408364 99.006615,12.440323 103.678932,12.953248 
	C106.646805,13.279060 109.761383,12.720237 112.637306,13.348926 
	C122.087349,15.414750 126.298721,20.980860 126.299110,30.749092 
	C126.300514,65.574287 126.238754,100.399780 126.419312,135.224030 
	C126.432266,137.722153 127.570053,140.806137 129.260773,142.608383 
	C140.734421,154.838730 154.333786,163.844315 170.618759,168.455963 
	C171.552750,168.720428 172.525925,168.846527 174.118668,169.164276 
	C174.118668,167.097763 174.118683,165.340958 174.118683,163.584152 
	C174.118683,119.927689 174.118744,76.271225 174.118622,32.614765 
	C174.118591,23.668842 178.252686,17.728704 186.840836,15.279167 
	C190.788589,14.153181 194.996460,13.435006 199.091537,13.410984 
	C227.084015,13.246765 255.077881,13.312306 283.071289,13.321076 
	C284.530792,13.321534 285.990234,13.479811 287.924622,13.592209 
	C287.924622,20.475151 288.256958,27.111412 287.815979,33.695885 
	C287.483093,38.666336 283.927856,41.142937 278.311615,41.152817 
	C255.983582,41.192089 233.655426,41.172291 211.327316,41.174339 
	C209.522507,41.174503 207.717682,41.174358 205.239380,41.174358 
	C205.239380,92.782890 205.239380,144.035843 205.239319,195.759033 
z"/>
<path fill="#050505" opacity="1.000000" stroke="none" 
	d="
M282.933075,251.135986 
	C282.933594,258.938507 282.937042,266.260315 282.934174,273.582123 
	C282.930847,282.154419 282.430115,282.540100 273.152069,280.603271 
	C273.067352,278.998505 272.897888,277.243073 272.894257,275.487305 
	C272.867676,262.674194 272.813843,249.860535 272.916229,237.048233 
	C272.939728,234.107742 271.666443,230.325867 276.032623,229.116959 
	C281.600281,227.575409 287.258087,229.100647 289.354309,232.933563 
	C294.370148,242.105026 299.166809,251.396423 304.047852,260.641541 
	C304.485596,261.470673 304.893707,262.315399 306.404602,263.078400 
	C306.404602,258.937927 306.404480,254.797455 306.404602,250.656982 
	C306.404724,245.831238 306.403564,241.005508 306.405640,236.179764 
	C306.409088,228.179581 307.224976,227.593903 316.065186,229.769348 
	C316.065186,239.559555 316.065857,249.495499 316.064911,259.431427 
	C316.064362,265.089172 315.943695,270.750244 316.102814,276.403473 
	C316.199707,279.846741 314.701050,281.007172 311.397888,281.295471 
	C305.773834,281.786285 302.094299,280.029572 299.487549,274.649567 
	C294.510773,264.378326 288.880646,254.423676 282.933258,243.230026 
	C282.933258,246.377563 282.933258,248.516418 282.933075,251.135986 
M306.006317,264.501740 
	C306.193695,264.631287 306.381073,264.760864 306.568420,264.890411 
	C306.536316,264.597595 306.504211,264.304749 306.006317,264.501740 
z"/>
<path fill="#690815" opacity="1.000000" stroke="none" 
	d="
M78.796303,253.970642 
	C78.851280,254.432205 78.906250,254.893784 78.627289,256.019928 
	C78.460045,262.446381 78.626732,268.208282 78.793411,273.970154 
	C78.848686,274.432465 78.903969,274.894806 78.640778,275.976685 
	C78.301651,277.818390 78.280983,279.040497 78.260323,280.262634 
	C78.260323,280.262634 78.090591,279.974030 77.708954,280.035065 
	C74.762527,280.233673 72.197739,280.371277 69.632942,280.508881 
	C69.632942,280.508881 69.596207,280.409912 69.712646,279.887146 
	C69.884644,266.932159 69.958504,254.499969 69.990097,242.067657 
	C70.016777,231.569809 69.995285,231.570709 79.572075,229.506622 
	C79.717133,229.475357 79.832962,229.308502 79.962433,229.204926 
	C80.443657,229.190048 80.924881,229.175171 81.767502,229.666885 
	C82.909279,230.627686 83.689667,231.081879 84.470047,231.536072 
	C84.470047,231.536087 84.162643,231.770248 84.209702,232.003235 
	C84.789352,232.827103 85.321953,233.417984 85.854553,234.008850 
	C85.854561,234.008850 86.153519,234.222061 86.112335,234.807190 
	C87.401154,237.582382 88.731163,239.772415 90.061172,241.962463 
	C92.579224,246.470016 95.097275,250.977585 97.897491,256.091064 
	C99.304306,258.913239 100.428955,261.129486 102.004951,264.235199 
	C102.004951,260.764221 102.004951,258.384491 102.004951,256.004761 
	C102.079094,248.848236 102.350746,241.686111 102.147865,234.537445 
	C102.038910,230.698151 102.885452,228.661865 107.191025,228.601395 
	C111.417114,228.542053 112.464615,230.287109 112.393806,234.290009 
	C112.164017,247.279449 112.377960,260.276154 112.252281,273.268463 
	C112.224403,276.150452 113.761017,279.932495 109.186302,281.141113 
	C103.701973,282.590057 99.018814,281.016449 96.686028,276.698547 
	C91.709755,267.487793 86.856003,258.210846 81.951958,248.961090 
	C81.117920,247.387939 80.283463,245.815018 79.080429,243.546661 
	C78.957947,245.351852 78.891380,246.333008 78.552673,247.964600 
	C78.452461,250.400223 78.624382,252.185440 78.796303,253.970642 
M78.516624,242.417557 
	C78.516624,242.417557 78.578743,242.524017 78.516624,242.417557 
z"/>
<path fill="#070707" opacity="1.000000" stroke="none" 
	d="
M369.031616,266.798279 
	C365.289398,276.023407 358.160614,280.046509 349.121429,280.860748 
	C343.336945,281.381775 337.481659,281.104248 331.658691,281.215302 
	C328.543518,281.274750 327.103241,279.809509 327.111389,276.679596 
	C327.149048,262.195129 327.030640,247.708511 327.304230,233.229034 
	C327.331177,231.802460 329.625702,229.235535 330.905640,229.211426 
	C338.199585,229.073914 345.604187,228.889023 352.782990,229.970032 
	C363.157043,231.532242 370.171478,239.306900 370.761292,249.712555 
	C371.074249,255.233841 369.731720,260.848969 369.031616,266.798279 
M348.782684,238.052414 
	C345.359467,237.889633 341.936249,237.726852 338.503174,237.563599 
	C338.503174,249.577087 338.503174,260.948822 338.503174,272.276184 
	C350.637238,273.492828 356.894470,270.179718 358.937469,261.688263 
	C361.721802,250.115738 358.466980,241.950516 348.782684,238.052414 
z"/>
<path fill="#0A0A0A" opacity="1.000000" stroke="none" 
	d="
M197.153412,269.045013 
	C197.153381,273.164642 197.153381,276.798401 197.153381,280.981689 
	C193.434875,280.981689 190.227249,280.981689 186.732605,280.981689 
	C186.553894,279.662140 186.277710,278.563751 186.275620,277.464844 
	C186.248367,263.135529 186.362320,248.804916 186.196594,234.477463 
	C186.149521,230.407303 187.440430,228.707520 191.663208,228.939972 
	C196.979874,229.232635 202.331772,228.868256 207.651123,229.134155 
	C215.520401,229.527542 220.794540,233.563232 222.130814,239.796921 
	C223.753464,247.366516 221.280167,252.435059 214.628525,256.227631 
	C218.432022,264.155396 222.212463,272.035126 226.088959,280.115051 
	C215.944138,282.860138 214.569321,282.231018 211.383423,274.358795 
	C210.198105,271.429993 209.039413,268.486359 207.728821,265.613220 
	C205.781387,261.344025 202.633652,259.141846 197.153458,260.376556 
	C197.153458,263.015686 197.153458,265.787415 197.153412,269.045013 
M197.110794,242.664566 
	C197.110794,245.605911 197.110794,248.547256 197.110794,251.685715 
	C202.289886,252.018600 207.292099,252.801010 210.083237,248.073486 
	C211.191254,246.196793 211.230042,242.519302 210.090027,240.712723 
	C207.133377,236.027328 202.105972,237.310959 197.110825,237.585022 
	C197.110825,239.159470 197.110825,240.450989 197.110794,242.664566 
z"/>
<path fill="#680815" opacity="1.000000" stroke="none" 
	d="
M26.054832,262.482727 
	C27.456747,270.619324 31.169514,273.715912 38.179218,273.011963 
	C43.956020,272.431824 46.972313,268.475739 47.004593,261.273651 
	C47.045639,252.116791 47.271252,242.949615 46.911667,233.806778 
	C46.727497,229.124084 49.087158,228.608902 52.675980,228.642700 
	C56.013783,228.674164 58.313370,229.047668 58.155174,233.510101 
	C57.807358,243.321243 58.149208,253.154739 57.946732,262.973694 
	C57.709267,274.489136 50.141396,281.921448 38.640461,281.963684 
	C34.857109,281.977600 30.949020,281.794006 27.312418,280.863068 
	C20.085045,279.012848 15.672769,273.615173 15.265601,266.564240 
	C14.558352,254.316788 15.069042,241.999008 15.069042,229.338867 
	C16.934408,229.090729 18.532816,228.850662 20.137894,228.669830 
	C24.558599,228.171829 26.309776,229.790894 26.106895,234.572388 
	C25.719091,243.712296 26.011375,252.881058 26.054832,262.482727 
z"/>
<path fill="#060606" opacity="1.000000" stroke="none" 
	d="
M243.483124,268.931580 
	C243.166687,271.897125 243.961761,273.055450 246.743362,272.922485 
	C251.232849,272.707825 255.746521,273.010071 260.237549,272.812073 
	C263.240326,272.679688 263.970062,274.112671 263.928772,276.711456 
	C263.888428,279.251099 263.718933,281.320374 260.272614,281.261749 
	C252.608673,281.131317 244.940582,281.161346 237.275284,281.238037 
	C234.180557,281.269043 232.829071,280.203644 232.860992,276.857361 
	C232.999298,262.359589 232.957230,247.859482 232.879730,233.360764 
	C232.864777,230.564438 233.524292,228.940277 236.734207,228.977463 
	C245.387268,229.077652 254.042236,229.011719 262.602478,229.011719 
	C264.849426,236.529449 264.083984,237.648590 257.014893,237.639877 
	C252.710999,237.634567 248.407104,237.638885 243.789185,237.638885 
	C243.789185,241.745331 243.789185,245.493774 243.789185,250.026352 
	C248.124283,250.026352 252.542206,250.183990 256.942596,249.974091 
	C260.182800,249.819519 260.826416,251.363388 260.907654,254.182480 
	C260.996918,257.279327 259.820160,258.294464 256.806854,258.156494 
	C252.517593,257.960144 248.212662,258.106567 243.483017,258.106567 
	C243.483017,261.850098 243.483017,265.145294 243.483124,268.931580 
z"/>
<path fill="#0A0A0A" opacity="1.000000" stroke="none" 
	d="
M140.092224,232.156174 
	C141.221329,230.811295 142.322708,229.137405 143.450577,229.119385 
	C155.389786,228.928452 167.333191,229.001053 179.732773,229.001053 
	C179.732773,231.889496 179.732773,234.438110 179.732773,237.662567 
	C175.258911,237.662567 170.724335,237.662567 165.754211,237.662567 
	C165.754211,249.737503 165.758926,261.158661 165.752792,272.579803 
	C165.747528,282.371521 165.506424,282.560455 155.093689,280.660217 
	C155.093689,266.716705 155.093689,252.671951 155.093689,237.835449 
	C151.584900,237.835449 148.492203,237.600616 145.450119,237.892822 
	C141.322021,238.289322 139.492203,236.774429 140.092224,232.156174 
z"/>
<path fill="#080808" opacity="1.000000" stroke="none" 
	d="
M213.855438,60.165623 
	C213.855331,58.216942 213.855331,56.738449 213.855331,54.976212 
	C228.894211,54.976212 243.603302,54.976212 258.652649,54.976212 
	C258.652649,60.352470 258.652649,65.719704 258.652649,71.408096 
	C243.965042,71.408096 229.272141,71.408096 213.855545,71.408096 
	C213.855545,67.796768 213.855545,64.216293 213.855438,60.165623 
z"/>
<path fill="#0A0A0A" opacity="1.000000" stroke="none" 
	d="
M142.239716,23.431507 
	C146.117371,16.486309 151.204605,12.538999 159.338882,13.388270 
	C163.622467,13.835503 167.994034,13.391195 172.321136,13.515341 
	C173.101227,13.537722 174.028534,14.235203 174.537994,14.892286 
	C174.729340,15.139059 174.076309,16.572910 173.553162,16.762785 
	C162.737396,20.688396 163.184021,29.692289 163.559372,38.678658 
	C163.579956,39.171532 163.627396,39.663284 163.694244,40.605324 
	C155.789536,40.605324 147.932587,40.605324 138.663452,40.605324 
	C139.820602,34.881409 140.943893,29.324900 142.239716,23.431507 
z"/>
<path fill="#6C0B19" opacity="1.000000" stroke="none" 
	d="
M134.328690,263.995300 
	C134.328598,269.793427 134.328598,275.092834 134.328598,280.586395 
	C132.765610,280.924103 131.514618,281.299438 130.236984,281.452545 
	C124.213951,282.174133 123.163307,281.254639 123.162651,275.363739 
	C123.161125,261.575531 123.346695,247.783691 123.066261,234.001266 
	C122.976891,229.609024 124.808662,228.617630 128.589462,228.594666 
	C132.471481,228.571106 134.636032,229.322220 134.444901,234.097565 
	C134.053207,243.883133 134.328247,253.695374 134.328690,263.995300 
z"/>
<path fill="#6A121E" opacity="1.000000" stroke="none" 
	d="
M267.927246,298.048462 
	C270.381500,299.364624 273.080200,300.246826 274.307220,302.102264 
	C276.993622,306.164490 278.933502,310.720428 281.926941,314.926300 
	C281.926941,312.194336 281.926910,309.462372 281.926910,306.730408 
	C281.926910,304.088226 281.926941,301.446045 281.926941,298.595276 
	C285.321198,297.513611 287.089966,297.867126 286.969574,301.884521 
	C286.775513,308.361481 287.047821,314.853180 286.815613,321.327637 
	C286.761078,322.847656 285.448059,325.592285 284.765869,325.576202 
	C282.901978,325.532196 280.258423,324.840881 279.365723,323.468140 
	C276.365448,318.854431 273.992859,313.832489 271.380066,308.966766 
	C270.961182,309.057739 270.542267,309.148743 270.123383,309.239746 
	C270.123383,313.599243 270.329285,317.974609 269.995087,322.308350 
	C269.897705,323.571014 268.258728,324.714813 267.326385,325.913086 
	C266.529816,324.756989 265.080902,323.621277 265.043945,322.441406 
	C264.825562,315.466766 264.816833,308.477905 265.049774,301.504272 
	C265.089020,300.328827 266.647644,299.204071 267.927246,298.048462 
z"/>
<path fill="#6A121E" opacity="1.000000" stroke="none" 
	d="
M64.911392,301.388733 
	C66.135521,299.969208 67.473442,298.109192 68.563637,298.244537 
	C70.420326,298.475037 72.590462,299.573486 73.774429,301.010986 
	C75.425980,303.016296 76.268341,305.680969 77.500153,308.040955 
	C78.712753,310.364136 79.979218,312.659210 81.908463,316.240997 
	C81.908463,312.242554 81.908463,309.542053 81.908463,306.841522 
	C81.908463,304.190857 81.908463,301.540222 81.908463,298.728943 
	C85.344505,297.341034 87.029495,297.888397 86.937279,301.850555 
	C86.793877,308.011383 87.099922,314.188995 86.768471,320.335358 
	C86.666267,322.230621 85.106979,324.047272 84.214859,325.899933 
	C82.286942,324.666199 79.687408,323.864014 78.563011,322.114014 
	C75.726074,317.698669 73.553406,312.856537 70.110916,308.292633 
	C70.110916,312.818359 70.292427,317.355774 70.002663,321.862885 
	C69.913254,323.253510 68.539040,324.561554 67.753113,325.907410 
	C66.808594,324.550720 65.108673,323.226807 65.048073,321.831726 
	C64.759178,315.180328 64.915688,308.509613 64.911392,301.388733 
z"/>
<path fill="#6A111D" opacity="1.000000" stroke="none" 
	d="
M259.992065,317.657684 
	C256.456635,326.496857 248.367615,327.544464 242.732178,325.150879 
	C235.990738,322.287506 233.432205,312.188629 237.061584,304.320740 
	C239.848312,298.279602 248.020111,295.736145 254.702133,298.808075 
	C258.818451,300.700470 260.430817,304.299408 260.714844,308.421051 
	C260.916199,311.342529 260.323761,314.318726 259.992065,317.657684 
M242.004318,308.094452 
	C242.006821,310.587067 241.276016,313.411377 242.212387,315.481598 
	C243.203445,317.672607 245.688690,320.430023 247.691040,320.573608 
	C249.711456,320.718536 252.454956,318.336273 253.910095,316.349579 
	C255.016388,314.839142 254.921432,312.193848 254.787903,310.089813 
	C254.584412,306.882965 253.869934,303.677551 249.980042,302.821686 
	C246.093994,301.966644 243.561829,303.655457 242.004318,308.094452 
z"/>
<path fill="#6B111E" opacity="1.000000" stroke="none" 
	d="
M170.022827,322.011017 
	C167.532700,317.640808 165.042557,313.270599 162.552429,308.900421 
	C162.201218,308.951599 161.850021,309.002808 161.498825,309.053986 
	C161.498825,313.400879 161.701462,317.762909 161.378128,322.085602 
	C161.278214,323.421448 159.746201,324.650177 158.869873,325.927948 
	C157.984222,324.674042 156.386002,323.449432 156.333115,322.161316 
	C156.067825,315.699799 156.052567,309.215454 156.313416,302.753815 
	C156.377777,301.159943 157.926498,298.248383 158.579468,298.307312 
	C160.772781,298.505157 163.736511,299.167999 164.833908,300.745850 
	C167.640625,304.781494 169.599991,309.406494 172.967606,313.733185 
	C172.967606,309.458618 172.967606,305.184082 173.398788,300.417847 
	C177.101334,298.839417 176.988953,301.112000 176.997406,303.168335 
	C177.027420,310.463440 177.023193,317.758698 177.031921,325.053894 
	C177.031921,325.053894 176.995499,325.007965 176.612244,325.005920 
	C174.863861,324.982178 173.498703,324.960510 172.133560,324.938843 
	C172.133560,324.938843 172.048889,324.948456 172.002747,324.607361 
	C171.522751,323.926453 171.088867,323.586670 170.654984,323.246887 
	C170.654984,323.246887 170.783737,323.184265 170.752747,322.980652 
	C170.488785,322.521698 170.255798,322.266357 170.022827,322.011017 
z"/>
<path fill="#6D1421" opacity="1.000000" stroke="none" 
	d="
M143.454895,298.091095 
	C152.522079,300.392792 153.976898,306.088531 147.917725,312.684723 
	C149.686829,316.821075 151.396835,320.819244 153.171295,324.968079 
	C148.993149,326.843750 147.108200,325.833160 145.663116,322.301880 
	C144.429321,319.286896 144.391418,314.852173 139.887466,314.558258 
	C136.378494,317.766479 142.849030,325.819611 132.941849,325.984985 
	C132.941849,317.172607 132.858322,308.756653 133.077240,300.348572 
	C133.098038,299.549408 134.936768,298.302673 136.063431,298.131378 
	C138.335373,297.785919 140.698135,298.037781 143.454895,298.091095 
M138.903397,309.074219 
	C140.795135,308.889404 142.822357,309.032043 144.502762,308.336578 
	C145.066727,308.103210 145.335190,304.978180 144.713470,304.495544 
	C143.270340,303.375244 141.202438,303.059723 138.741898,302.189575 
	C138.741898,304.953033 138.741898,306.571564 138.903397,309.074219 
z"/>
<path fill="#6B121E" opacity="1.000000" stroke="none" 
	d="
M185.473633,325.753052 
	C181.752457,326.309052 180.419937,325.461395 181.796829,321.764832 
	C184.347702,314.916412 186.419388,307.888794 189.002808,301.053833 
	C189.490158,299.764435 191.342377,298.392731 192.722809,298.201813 
	C194.200058,297.997589 196.903519,298.754120 197.282837,299.763550 
	C200.408890,308.082367 203.118851,316.557587 205.942490,324.948547 
	C198.944321,328.234009 199.409393,322.375793 197.721909,319.440552 
	C189.544037,318.436920 189.544037,318.436920 185.473633,325.753052 
M191.686707,308.442078 
	C191.078964,310.247131 190.471222,312.052155 189.724594,314.269684 
	C192.145004,314.269684 194.000214,314.269684 196.479538,314.269684 
	C195.408630,311.063721 194.489700,308.312744 193.251343,304.605469 
	C192.511139,306.319000 192.205994,307.025421 191.686707,308.442078 
z"/>
<path fill="#6A111E" opacity="1.000000" stroke="none" 
	d="
M295.977600,322.911499 
	C294.341858,324.399719 292.765961,325.479950 291.190033,326.560211 
	C290.744385,326.132141 290.298706,325.704071 289.853027,325.276001 
	C290.205658,323.754669 290.443512,322.195465 290.930756,320.718597 
	C293.059113,314.267212 295.070892,307.764709 297.573120,301.458649 
	C298.164886,299.967255 300.479309,298.310730 302.026398,298.285767 
	C303.574310,298.260742 305.995178,299.849335 306.574799,301.309540 
	C309.201630,307.927063 311.341095,314.739899 313.582733,321.506683 
	C313.977570,322.698578 314.023163,324.006134 314.231262,325.267731 
	C307.614410,327.953156 308.073822,322.201752 306.337433,318.872772 
	C302.856873,320.403534 297.728912,315.946381 295.977600,322.911499 
M298.964661,312.673523 
	C300.718872,313.533997 302.473114,314.394440 304.227356,315.254913 
	C304.516541,314.818359 304.805756,314.381836 305.094940,313.945282 
	C304.056061,311.008026 303.017151,308.070740 301.642395,304.183990 
	C300.592072,307.506165 299.898132,309.701050 298.964661,312.673523 
z"/>
<path fill="#6D1723" opacity="1.000000" stroke="none" 
	d="
M112.795685,323.125183 
	C112.755081,315.714600 112.854622,308.737122 112.690010,301.765839 
	C112.623299,298.940857 113.608826,297.855072 116.410156,297.984985 
	C119.558777,298.131042 122.741028,297.813507 125.861771,298.142426 
	C126.815559,298.242950 127.614716,299.810699 128.484695,300.706512 
	C127.596016,301.407104 126.770401,302.585144 125.806015,302.712524 
	C123.541603,303.011627 121.210815,302.808258 118.564980,302.808258 
	C118.564980,304.879059 118.564980,306.599304 118.564980,308.793335 
	C121.141365,308.793335 123.719673,308.793335 126.181152,308.793335 
	C127.166061,312.788330 127.166061,312.788330 118.241508,314.359802 
	C118.241508,315.245361 118.209953,316.205078 118.250328,317.161774 
	C118.291176,318.129761 118.403221,319.094757 118.525261,320.553284 
	C121.766335,320.553284 124.840561,320.553284 128.547012,320.553284 
	C128.345886,322.625336 128.199738,324.130951 128.045486,325.719940 
	C123.916168,325.719940 120.256241,325.907410 116.633797,325.620880 
	C115.319649,325.516968 114.095085,324.280518 112.795685,323.125183 
z"/>
<path fill="#111111" opacity="1.000000" stroke="none" 
	d="
M223.437439,104.888870 
	C220.140335,99.762474 217.116684,94.906807 213.785950,89.557983 
	C221.590652,89.557983 228.743652,89.557983 236.524536,89.557983 
	C234.676956,94.612396 233.394897,99.616714 230.935913,103.953735 
	C230.177582,105.291214 226.209366,104.808754 223.437439,104.888870 
z"/>
<path fill="#701925" opacity="1.000000" stroke="none" 
	d="
M100.714561,325.903564 
	C97.168320,326.304657 96.762466,324.411285 96.788956,321.935547 
	C96.854317,315.825226 96.810379,309.713745 96.810379,303.336670 
	C94.339989,303.132812 92.267609,302.961792 90.132362,302.785614 
	C89.012810,299.659943 89.396004,297.871246 93.168579,297.992249 
	C97.480644,298.130524 101.813408,297.837524 106.109512,298.133514 
	C107.456970,298.226349 108.715004,299.617279 110.013962,300.414062 
	C108.793121,301.287628 107.657211,302.343719 106.319527,302.966278 
	C105.517952,303.339355 104.400993,303.034821 102.627731,303.034821 
	C102.627731,309.026825 102.743538,314.761597 102.559731,320.486725 
	C102.501854,322.289581 101.640472,324.066650 100.714561,325.903564 
z"/>
<path fill="#6E1824" opacity="1.000000" stroke="none" 
	d="
M222.980499,299.150269 
	C223.689911,305.634979 218.341919,301.550873 215.900101,304.297638 
	C215.900101,309.390228 215.947556,315.337097 215.873566,321.282440 
	C215.848694,323.281830 216.660797,325.912140 213.102936,325.956604 
	C209.336624,326.003662 209.982407,323.278473 209.964600,321.039978 
	C209.918457,315.240875 209.949127,309.441193 209.949127,303.311401 
	C207.653351,303.140717 205.720169,302.996979 203.294861,302.816681 
	C203.148041,301.520538 202.991409,300.137695 202.721619,297.755798 
	C209.737427,298.095093 216.269745,298.411041 222.980499,299.150269 
z"/>
<path fill="#711A27" opacity="1.000000" stroke="none" 
	d="
M317.077576,309.032349 
	C317.074280,306.548187 317.227173,304.541351 317.036285,302.567749 
	C316.621155,298.276245 318.562500,297.227814 322.847809,298.540070 
	C322.847809,305.460480 322.847809,312.518768 322.847809,319.921295 
	C326.042267,320.119598 328.767120,320.288757 331.756531,320.474304 
	C331.756531,322.154083 331.756531,323.566437 331.756531,325.735901 
	C327.762390,325.735901 323.819061,326.004883 319.956909,325.563477 
	C318.872498,325.439514 317.318512,323.289062 317.203217,321.961914 
	C316.845398,317.843658 317.075775,313.674316 317.077576,309.032349 
z"/>
<path fill="#711C28" opacity="1.000000" stroke="none" 
	d="
M231.182190,325.010925 
	C228.654297,326.210480 225.948776,326.915497 225.832199,323.343903 
	C225.563156,315.099854 225.746765,306.841095 225.746765,298.720734 
	C230.381500,296.991974 231.959015,298.324432 231.755783,302.780182 
	C231.423950,310.054688 231.483521,317.347076 231.182190,325.010925 
z"/>
<path fill="#68141F" opacity="1.000000" stroke="none" 
	d="
M59.886040,319.745697 
	C59.885559,321.042480 60.213772,322.113159 59.817970,322.649506 
	C58.910603,323.879028 57.649967,324.847839 56.532761,325.922516 
	C55.640202,324.837585 54.005276,323.773529 53.974087,322.664368 
	C53.751209,314.737610 53.855083,306.801605 53.855083,298.961304 
	C59.474087,297.360626 59.875904,297.628967 59.893497,302.881744 
	C59.911804,308.346710 59.890129,313.811859 59.886040,319.745697 
z"/>
<path fill="#5C101B" opacity="1.000000" stroke="none" 
	d="
M79.525650,229.096375 
	C79.832962,229.308502 79.717133,229.475357 79.572075,229.506622 
	C69.995285,231.570709 70.016777,231.569809 69.990097,242.067657 
	C69.958504,254.499969 69.884644,266.932159 69.681793,279.844299 
	C69.337898,274.417786 69.034752,268.512543 68.969749,262.604675 
	C68.873215,253.830414 68.942223,245.054276 68.946411,236.278946 
	C68.949837,229.105698 69.091171,228.963577 76.109383,228.957458 
	C77.102539,228.956589 78.095711,228.977158 79.525650,229.096375 
z"/>
<path fill="#5E1B25" opacity="1.000000" stroke="none" 
	d="
M177.377563,324.791138 
	C177.023193,317.758698 177.027420,310.463440 176.997406,303.168335 
	C176.988953,301.112000 177.101334,298.839417 173.490158,299.961121 
	C174.400391,299.129669 175.650421,298.263275 177.723206,296.826599 
	C177.723206,307.050415 177.723206,315.789398 177.377563,324.791138 
z"/>
<path fill="#5C101B" opacity="1.000000" stroke="none" 
	d="
M78.880203,273.511414 
	C78.626732,268.208282 78.460045,262.446381 78.545212,256.361267 
	C78.853706,261.709595 78.910347,267.381165 78.880203,273.511414 
z"/>
<path fill="#FBEBED" opacity="1.000000" stroke="none" 
	d="
M101.733749,256.106995 
	C102.004951,258.384491 102.004951,260.764221 102.004951,264.235199 
	C100.428955,261.129486 99.304306,258.913239 98.143417,256.347015 
	C99.225639,256.067749 100.344086,256.138489 101.733749,256.106995 
z"/>
<path fill="#5C101B" opacity="1.000000" stroke="none" 
	d="
M90.016296,241.612900 
	C88.731163,239.772415 87.401154,237.582382 86.106323,234.990692 
	C87.418129,236.813828 88.694771,239.038574 90.016296,241.612900 
z"/>
<path fill="#5C101B" opacity="1.000000" stroke="none" 
	d="
M69.905174,280.736053 
	C72.197739,280.371277 74.762527,280.233673 77.802742,280.174500 
	C75.577911,280.489685 72.877655,280.726471 69.905174,280.736053 
z"/>
<path fill="#5C101B" opacity="1.000000" stroke="none" 
	d="
M78.881897,253.553650 
	C78.624382,252.185440 78.452461,250.400223 78.494431,248.339203 
	C78.794708,249.754471 78.881096,251.445557 78.881897,253.553650 
z"/>
<path fill="#5E1B25" opacity="1.000000" stroke="none" 
	d="
M172.297638,325.257294 
	C173.498703,324.960510 174.863861,324.982178 176.639496,325.016571 
	C175.520554,325.211456 173.991119,325.393616 172.297638,325.257294 
z"/>
<path fill="#5C101B" opacity="1.000000" stroke="none" 
	d="
M78.536644,280.009338 
	C78.280983,279.040497 78.301651,277.818390 78.562012,276.319702 
	C78.805458,277.280792 78.809212,278.518433 78.536644,280.009338 
z"/>
<path fill="#5C101B" opacity="1.000000" stroke="none" 
	d="
M85.852211,233.717438 
	C85.321953,233.417984 84.789352,232.827103 84.377892,231.908142 
	C84.949310,232.195374 85.399590,232.810699 85.852211,233.717438 
z"/>
<path fill="#5C101B" opacity="1.000000" stroke="none" 
	d="
M84.351013,231.285706 
	C83.689667,231.081879 82.909279,230.627686 82.064163,229.878571 
	C82.743607,230.067535 83.487793,230.551422 84.351013,231.285706 
z"/>
<path fill="#5E1B25" opacity="1.000000" stroke="none" 
	d="
M170.728302,323.522644 
	C171.088867,323.586670 171.522751,323.926453 172.008820,324.565186 
	C171.641220,324.508881 171.221436,324.153625 170.728302,323.522644 
z"/>
<path fill="#5E1B25" opacity="1.000000" stroke="none" 
	d="
M170.020142,322.281555 
	C170.255798,322.266357 170.488785,322.521698 170.720795,323.044708 
	C170.485687,323.058929 170.251587,322.805511 170.020142,322.281555 
z"/>
<path fill="#787878" opacity="1.000000" stroke="none" 
	d="
M306.239197,264.256836 
	C306.504211,264.304749 306.536316,264.597595 306.568420,264.890411 
	C306.381073,264.760864 306.193695,264.631287 306.239197,264.256836 
z"/>
<path fill="#5C101B" opacity="1.000000" stroke="none" 
	d="
M78.547684,242.470795 
	C78.578743,242.524017 78.516624,242.417557 78.547684,242.470795 
z"/>
<path fill="#F7F7F7" opacity="1.000000" stroke="none" 
	d="
M349.191528,238.158524 
	C358.466980,241.950516 361.721802,250.115738 358.937469,261.688263 
	C356.894470,270.179718 350.637238,273.492828 338.503174,272.276184 
	C338.503174,260.948822 338.503174,249.577087 338.503174,237.563599 
	C341.936249,237.726852 345.359467,237.889633 349.191528,238.158524 
z"/>
<path fill="#EFEFEF" opacity="1.000000" stroke="none" 
	d="
M197.110809,242.203537 
	C197.110825,240.450989 197.110825,239.159470 197.110825,237.585022 
	C202.105972,237.310959 207.133377,236.027328 210.090027,240.712723 
	C211.230042,242.519302 211.191254,246.196793 210.083237,248.073486 
	C207.292099,252.801010 202.289886,252.018600 197.110794,251.685715 
	C197.110794,248.547256 197.110794,245.605911 197.110809,242.203537 
z"/>
<path fill="#FBF4F5" opacity="1.000000" stroke="none" 
	d="
M242.073273,307.669464 
	C243.561829,303.655457 246.093994,301.966644 249.980042,302.821686 
	C253.869934,303.677551 254.584412,306.882965 254.787903,310.089813 
	C254.921432,312.193848 255.016388,314.839142 253.910095,316.349579 
	C252.454956,318.336273 249.711456,320.718536 247.691040,320.573608 
	C245.688690,320.430023 243.203445,317.672607 242.212387,315.481598 
	C241.276016,313.411377 242.006821,310.587067 242.073273,307.669464 
z"/>
<path fill="#FDEEEE" opacity="1.000000" stroke="none" 
	d="
M138.822647,308.632141 
	C138.741898,306.571564 138.741898,304.953033 138.741898,302.189575 
	C141.202438,303.059723 143.270340,303.375244 144.713470,304.495544 
	C145.335190,304.978180 145.066727,308.103210 144.502762,308.336578 
	C142.822357,309.032043 140.795135,308.889404 138.822647,308.632141 
z"/>
<path fill="#F0D7DA" opacity="1.000000" stroke="none" 
	d="
M191.793777,308.086945 
	C192.205994,307.025421 192.511139,306.319000 193.251343,304.605469 
	C194.489700,308.312744 195.408630,311.063721 196.479538,314.269684 
	C194.000214,314.269684 192.145004,314.269684 189.724594,314.269684 
	C190.471222,312.052155 191.078964,310.247131 191.793777,308.086945 
z"/>
<path fill="#E9CDD0" opacity="1.000000" stroke="none" 
	d="
M299.084442,312.284729 
	C299.898132,309.701050 300.592072,307.506165 301.642395,304.183990 
	C303.017151,308.070740 304.056061,311.008026 305.094940,313.945282 
	C304.805756,314.381836 304.516541,314.818359 304.227356,315.254913 
	C302.473114,314.394440 300.718872,313.533997 299.084442,312.284729 
z"/>
</svg>